<?xml version="1.0" encoding="UTF-8"?>
<!-- Generator: visioncortex VTracer 0.6.2 -->
<svg version="1.1" xmlns="http://www.w3.org/2000/svg" width="1280" height="457">
<path d="M0 0 C422.4 0 844.8 0 1280 0 C1280 150.81 1280 301.62 1280 457 C857.6 457 435.2 457 0 457 C0 306.19 0 155.38 0 0 Z " fill="#F5F6F8" transform="translate(0,0)"/>
<path d="M0 0 C0.0916057 43.47486738 0.1620642 86.94972452 0.20426132 130.42466943 C0.20926399 135.56021272 0.2144413 140.69575582 0.21972656 145.83129883 C0.2207758 146.85366966 0.22182505 147.87604049 0.22290608 148.92939226 C0.24029938 165.47171396 0.27183115 182.01397993 0.30861118 198.5562686 C0.34605051 215.53702423 0.36824218 232.51775073 0.37635398 249.49854594 C0.38183554 259.97204005 0.39913292 270.44537656 0.43166587 280.91882215 C0.45285069 288.106139 0.45919107 295.29337469 0.45400551 302.48072048 C0.4514499 306.62410919 0.45529783 310.767223 0.4768219 314.91056252 C0.49642224 318.71153977 0.49718374 322.51205974 0.48359558 326.31305895 C0.48113026 328.32358893 0.49826093 330.33411428 0.51632524 332.34456462 C0.42119502 346.92536728 -3.65180509 358.26222267 -13.7578125 368.83984375 C-24.97554826 379.09233248 -36.85483417 380.30019657 -51.42817688 380.26069641 C-53.00704208 380.26371908 -54.58590581 380.26760915 -56.16476697 380.27228898 C-60.49228353 380.28256289 -64.81971718 380.28038869 -69.14724052 380.27610838 C-73.81880133 380.27364005 -78.49034224 380.2826567 -83.16189575 380.29014587 C-92.30995248 380.30289215 -101.45797986 380.30468663 -110.60604397 380.30234561 C-118.04283358 380.30056212 -125.47961428 380.30231276 -132.91640282 380.30657005 C-134.50445804 380.30746284 -134.50445804 380.30746284 -136.12459519 380.30837366 C-138.27541088 380.30958542 -140.42622656 380.31079955 -142.57704224 380.31201603 C-162.74569819 380.32289141 -182.91433742 380.32072916 -203.0829943 380.31463119 C-221.52730882 380.30946272 -239.97157051 380.32071564 -258.41587458 380.33972941 C-277.36084386 380.35910935 -296.30578815 380.36736348 -315.25076741 380.36360615 C-325.88434696 380.36169426 -336.51788156 380.36418048 -347.15145302 380.37832069 C-356.20453271 380.39023748 -365.25753977 380.39163605 -374.31062046 380.37953053 C-378.92766854 380.37364381 -383.54458379 380.37253671 -388.161623 380.38453293 C-392.39264798 380.39539822 -396.62342936 380.3922807 -400.85444298 380.37827124 C-402.3806343 380.37562609 -403.90684476 380.37798514 -405.43301729 380.38600711 C-417.2066088 380.44357021 -427.73103054 379.62886497 -437.3125 372.25 C-437.90861084 371.80390381 -438.50472168 371.35780762 -439.11889648 370.89819336 C-447.79046339 364.26516761 -453.91091816 356.00134669 -456 345 C-456.09195654 342.27458576 -456.13050589 339.57540126 -456.12025452 336.85028076 C-456.12110894 336.02198549 -456.12196337 335.19369021 -456.12284368 334.34029508 C-456.12449254 331.56115137 -456.1189868 328.78206785 -456.11352539 326.00292969 C-456.11324336 324.01221722 -456.11340155 322.02150464 -456.1139679 320.03079224 C-456.11425527 314.62210161 -456.10836819 309.21343307 -456.10139394 303.80474758 C-456.09515045 298.15395151 -456.09455581 292.50315495 -456.09336853 286.85235596 C-456.09025816 276.14977895 -456.08204871 265.44721215 -456.07201904 254.74463964 C-456.0608488 242.56098319 -456.05534515 230.37732627 -456.05032361 218.19366598 C-456.03986587 193.129105 -456.02227209 168.06455307 -456 143 C-454.57830229 143.29365839 -453.15789194 143.5935529 -451.73803711 143.89599609 C-450.55134682 144.14547501 -450.55134682 144.14547501 -449.34068298 144.3999939 C-445.7951955 145.30883723 -442.74769005 146.85492791 -439.5625 148.625 C-438.91853271 148.97691406 -438.27456543 149.32882813 -437.61108398 149.69140625 C-431.90945058 152.89292289 -426.85895494 156.61741319 -422 161 C-421.32839844 161.59039062 -420.65679687 162.18078125 -419.96484375 162.7890625 C-403.53173641 178.14405345 -395.46997042 198.63683406 -390.27734375 220.03125 C-389.973125 221.28019043 -389.66890625 222.52913086 -389.35546875 223.81591797 C-388.75270399 226.31707111 -388.16244297 228.82127727 -387.5859375 231.32861328 C-385.7810532 238.89968317 -384.21171008 243.94887543 -378.5 249.375 C-373.32387021 251.77820312 -368.61031912 251.73211582 -363 251 C-358.65201814 249.21422174 -356.92891922 247.28378473 -355.0625 243.125 C-354.37187384 241.41792808 -353.68475276 239.70943636 -353 238 C-343.14733553 215.00090243 -323.52224459 196.49948971 -304.71606445 180.50610352 C-302.8958858 178.9086242 -301.19560282 177.22847804 -299.5 175.5 C-295.83731672 171.78804296 -291.9654767 168.38387345 -288 165 C-287.0409375 164.175 -286.081875 163.35 -285.09375 162.5 C-277.78110652 156.23734814 -270.30788164 150.20993096 -262.69677734 144.31445312 C-261.09342013 143.07237036 -259.49385532 141.8253966 -257.89453125 140.578125 C-223.79005623 114.12446377 -188.04881726 89.4029167 -150.36328125 68.32568359 C-148.21460842 67.12038468 -146.0743326 65.90191109 -143.9375 64.67578125 C-132.4691916 58.11391182 -120.75558925 52.02845962 -109 46 C-107.99710937 45.48421387 -106.99421875 44.96842773 -105.9609375 44.43701172 C-79.27506172 30.75708787 -51.96192665 18.48419933 -24.15380859 7.27197266 C-21.19880642 6.08018125 -18.24965315 4.87482479 -15.30078125 3.66796875 C-13.65939619 3.00646598 -12.01751221 2.34619907 -10.375 1.6875 C-9.65256104 1.39101562 -8.93012207 1.09453125 -8.18579102 0.7890625 C-3.34689054 -1.11563018 -3.34689054 -1.11563018 0 0 Z " fill="#4055A4" transform="translate(456,75)"/>
<path d="M0 0 C104.9152827 -0.1613254 104.9152827 -0.1613254 148.7109375 -0.1953125 C158.73535183 -0.20314393 168.7597659 -0.21122584 178.78417969 -0.21972656 C180.0405674 -0.22078156 181.2969551 -0.22183655 182.59141517 -0.22292352 C202.87178015 -0.24031821 223.15209974 -0.2718521 243.43243781 -0.30861118 C264.24732134 -0.34602435 285.06218112 -0.36823666 305.87709689 -0.37635398 C318.71981636 -0.38184095 331.56240757 -0.39916788 344.40508756 -0.43166587 C353.2131712 -0.45281835 362.02118859 -0.45919835 370.82929578 -0.45400551 C375.91023892 -0.45144491 380.99095802 -0.45535553 386.07186127 -0.4768219 C390.72827199 -0.49635075 395.38430896 -0.49722899 400.04073724 -0.48359558 C401.72062416 -0.48191169 403.40053484 -0.48693205 405.08037534 -0.49953273 C418.13355045 -0.59171144 430.07713103 0.67788928 440 10 C447.24954372 17.18179097 454.89829358 26.48297107 455.04296875 37.17578125 C455.02878906 38.10777344 455.01460938 39.03976563 455 40 C453.95328125 40.37769531 452.9065625 40.75539062 451.828125 41.14453125 C370.40575192 70.72083742 293.20951298 109.63583528 222 159 C221.32839844 159.46390137 220.65679687 159.92780273 219.96484375 160.40576172 C208.5656246 168.29351621 197.52076973 176.60361793 186.53515625 185.05566406 C184.14551109 186.8884004 181.74701896 188.70861905 179.34375 190.5234375 C171.70331872 196.30156654 164.23723053 202.20783364 156.9765625 208.45703125 C154.19014018 210.8375574 151.35792823 213.14374492 148.5 215.4375 C142.68896383 220.17366242 137.22045798 225.23450856 131.75634766 230.36132812 C129.93551329 232.06016608 128.10028573 233.7422551 126.26171875 235.421875 C118.07681176 242.92732373 110.39669911 250.72007311 103 259 C102.11828125 259.97839844 101.2365625 260.95679688 100.328125 261.96484375 C98.79623259 263.66504918 97.26710934 265.3677586 95.7421875 267.07421875 C94.52933092 268.41488757 93.27836105 269.72163895 92 271 C92 270.01 92 269.02 92 268 C91.34 268 90.68 268 90 268 C89.61521484 266.77990234 89.61521484 266.77990234 89.22265625 265.53515625 C84.04206695 250.02827446 76.513526 236.50573873 66 224 C65.29359375 223.12988281 64.5871875 222.25976562 63.859375 221.36328125 C47.26425614 201.78718734 24.36943366 191.49851564 0 185 C0 123.95 0 62.9 0 0 Z " fill="#F5F6F8" transform="translate(0,0)"/>
<path d="M0 0 C3.70169374 0.03452661 7.40101938 0.02054531 11.1027832 0.0012207 C13.49276717 0.00811565 15.88274509 0.01778483 18.27270508 0.03051758 C19.36049759 0.02555771 20.4482901 0.02059784 21.56904602 0.01548767 C34.09868143 0.20530045 44.07639964 3.85871762 52.96801758 12.66723633 C60.46125879 20.67677162 66.04885096 29.37878162 65.87817383 40.59692383 C64.83145508 40.97461914 63.78473633 41.35231445 62.70629883 41.74145508 C-18.71607425 71.31776124 -95.91231319 110.23275911 -167.12182617 159.59692383 C-167.79342773 160.0608252 -168.4650293 160.52472656 -169.15698242 161.00268555 C-180.55620158 168.89044003 -191.60105645 177.20054176 -202.58666992 185.65258789 C-204.97631509 187.48532422 -207.37480721 189.30554287 -209.77807617 191.12036133 C-217.41850745 196.89849037 -224.88459564 202.80475747 -232.14526367 209.05395508 C-234.93168599 211.43448123 -237.76389794 213.74066875 -240.62182617 216.03442383 C-246.43286234 220.77058625 -251.90136819 225.83143239 -257.36547852 230.95825195 C-259.18631288 232.65708991 -261.02154044 234.33917893 -262.86010742 236.01879883 C-271.04501441 243.52424756 -278.72512706 251.31699694 -286.12182617 259.59692383 C-287.00354492 260.57532227 -287.88526367 261.5537207 -288.79370117 262.56176758 C-290.32559358 264.26197301 -291.85471684 265.96468243 -293.37963867 267.67114258 C-294.59249525 269.0118114 -295.84346512 270.31856277 -297.12182617 271.59692383 C-297.12182617 270.60692383 -297.12182617 269.61692383 -297.12182617 268.59692383 C-297.78182617 268.59692383 -298.44182617 268.59692383 -299.12182617 268.59692383 C-299.50661133 267.37682617 -299.50661133 267.37682617 -299.89916992 266.13208008 C-305.07975923 250.62519829 -312.60830017 237.10266255 -323.12182617 224.59692383 C-323.82823242 223.72680664 -324.53463867 222.85668945 -325.26245117 221.96020508 C-341.85757003 202.38411116 -364.75239251 192.09543947 -389.12182617 185.59692383 C-389.12182617 171.73692383 -389.12182617 157.87692383 -389.12182617 143.59692383 C-369.93155892 149.24112008 -369.93155892 149.24112008 -364.18432617 152.90942383 C-363.57282715 153.29839844 -362.96132813 153.68737305 -362.33129883 154.08813477 C-345.6209575 164.90562726 -331.47162619 179.53513439 -321.08276367 196.49926758 C-320.55948486 197.35182129 -320.03620605 198.204375 -319.49707031 199.08276367 C-318.47891844 200.76149745 -317.47716732 202.45032338 -316.49462891 204.15014648 C-313.33148566 209.4160518 -310.84067895 212.20135994 -305.12182617 214.59692383 C-302.06089712 215.21722523 -302.06089712 215.21722523 -299.05932617 215.09692383 C-298.07834961 215.10723633 -297.09737305 215.11754883 -296.08666992 215.12817383 C-292.17319015 214.42694425 -290.13192562 213.19845022 -287.12182617 210.59692383 C-285.84141892 208.01868882 -284.91726568 205.80118744 -284.05932617 203.09692383 C-283.55695123 201.64977675 -283.05303198 200.20316489 -282.54760742 198.75708008 C-282.30606934 198.04696777 -282.06453125 197.33685547 -281.81567383 196.60522461 C-273.27936418 171.89738395 -257.94147389 149.60615609 -239.12182617 131.59692383 C-236.59849107 129.09018961 -234.09407414 126.5683937 -231.61401367 124.01879883 C-226.23297121 118.52531667 -220.73609762 113.48632324 -214.70776367 108.69067383 C-212.42013495 106.8384548 -210.2728871 104.91594707 -208.12182617 102.90942383 C-202.12707189 97.51521738 -195.5181408 92.90575727 -189.00463867 88.16723633 C-186.03580238 86.00671797 -183.08877527 83.82528549 -180.17651367 81.58911133 C-141.17811032 51.65171308 -98.18076019 28.497588 -52.74682617 10.03442383 C-51.81668701 9.65318359 -50.88654785 9.27194336 -49.92822266 8.87915039 C-47.01276324 7.72171172 -44.07542187 6.6531416 -41.12182617 5.59692383 C-39.9578833 5.14599365 -38.79394043 4.69506348 -37.59472656 4.23046875 C-25.2699679 -0.2126025 -12.97950593 -0.13409474 0 0 Z " fill="#4055A4" transform="translate(389.121826171875,-0.596923828125)"/>
<path d="M0 0 C1.27371712 -0.00043808 1.27371712 -0.00043808 2.57316589 -0.00088501 C5.37603014 0.0005068 8.17862758 0.01606103 10.98144531 0.03173828 C12.9262884 0.03546894 14.87113337 0.03831566 16.815979 0.04031372 C21.93208007 0.04794601 27.04806738 0.06759108 32.16412354 0.08972168 C37.38576723 0.11018878 42.60742931 0.11931729 47.82910156 0.12939453 C58.07264109 0.1508373 68.31609624 0.18496843 78.55957031 0.22705078 C75.65232152 1.71427926 72.8483707 2.84882207 69.72753906 3.82080078 C56.32495364 8.08433079 43.44895703 12.97790021 30.65527344 18.81591797 C27.34380652 20.32540368 24.0220097 21.81080034 20.70019531 23.29736328 C5.4924681 30.16570614 -9.08078585 37.73669904 -23.44042969 46.22705078 C-25.20987971 47.25974205 -26.97940991 48.29229596 -28.74902344 49.32470703 C-39.29940262 55.52437335 -49.48194025 62.11863408 -59.44042969 69.22705078 C-60.1594043 69.73880859 -60.87837891 70.25056641 -61.61914062 70.77783203 C-72.34799563 78.42999586 -82.96203062 86.2352803 -93.44042969 94.22705078 C-94.05934082 94.69884766 -94.67825195 95.17064453 -95.31591797 95.65673828 C-103.38750993 101.83578409 -110.98235343 108.31439823 -118.44042969 115.22705078 C-119.83066863 116.4625414 -121.22602776 117.69231007 -122.62792969 118.91455078 C-123.25957031 119.46626953 -123.89121094 120.01798828 -124.54199219 120.58642578 C-125.84180554 121.70972127 -127.14953479 122.82390373 -128.46386719 123.93017578 C-132.51898389 127.37935551 -136.10986902 130.95507388 -139.54199219 135.02392578 C-140.89224784 136.59088913 -142.28843798 138.11877084 -143.71386719 139.61767578 C-160.43610652 157.23669136 -172.88793115 179.3346808 -180.26123047 202.40405273 C-181.92240598 207.4165052 -183.81261782 211.43165137 -188.32714844 214.51611328 C-193.81951254 216.36382172 -201.05804904 216.36531445 -206.31542969 213.78955078 C-210.5218508 210.88053184 -212.83420059 206.51966341 -215.44042969 202.22705078 C-222.66656351 191.09169703 -230.38717418 180.9404395 -239.44042969 171.22705078 C-240.10042969 170.51291016 -240.76042969 169.79876953 -241.44042969 169.06298828 C-246.29596988 163.99208139 -251.54295021 160.01828759 -257.44042969 156.22705078 C-258.34535156 155.62763672 -259.25027344 155.02822266 -260.18261719 154.41064453 C-267.25745802 149.97209263 -274.29467222 147.42912291 -282.26464844 145.17236328 C-285.44042969 144.22705078 -285.44042969 144.22705078 -286.44042969 143.22705078 C-286.52833944 140.93553661 -286.54737007 138.64132554 -286.53808594 136.34814453 C-286.53667099 135.66148209 -286.53525604 134.97481964 -286.53379822 134.26734924 C-286.52818448 132.06637277 -286.51562976 129.86549669 -286.50292969 127.66455078 C-286.49791645 126.17561995 -286.49335324 124.68668754 -286.48925781 123.19775391 C-286.47821062 119.54082003 -286.46093682 115.8839452 -286.44042969 112.22705078 C-254.2372899 115.02144173 -228.23196938 134.80690898 -206.44042969 157.22705078 C-203.26169792 160.66072612 -203.26169792 160.66072612 -199.44042969 163.22705078 C-199.17101562 162.51291016 -198.90160156 161.79876953 -198.62402344 161.06298828 C-187.2498232 133.80995405 -162.49507729 109.15669131 -140.44042969 90.22705078 C-139.43211916 89.34350423 -138.42434695 88.45934312 -137.41699219 87.57470703 C-129.79757865 80.91957844 -121.93511121 74.67716721 -113.86230469 68.58251953 C-110.10639719 65.74559295 -106.39937693 62.85105589 -102.70043945 59.94042969 C-93.4983281 52.70956029 -84.09275457 45.84369707 -74.44042969 39.22705078 C-73.8266748 38.80504395 -73.21291992 38.38303711 -72.58056641 37.94824219 C-68.24171716 34.97683065 -63.85811487 32.07981484 -59.44042969 29.22705078 C-58.31290283 28.49881104 -58.31290283 28.49881104 -57.16259766 27.75585938 C-42.67039394 18.45891865 -27.70597188 10.17714183 -12.44042969 2.22705078 C-11.90279495 1.87479935 -11.36516022 1.52254791 -10.81123352 1.15962219 C-7.26762005 -0.23428167 -3.75141118 -0.03375497 0 0 Z " fill="#F5F6F8" transform="translate(286.4404296875,-0.22705078125)"/>
<path d="M0 0 C1.68963097 0.0112107 3.37928164 0.01974202 5.06893921 0.02572632 C9.48511983 0.04847774 13.90008915 0.10727913 18.3157959 0.1739502 C22.83406189 0.23567124 27.3525264 0.26280454 31.87109375 0.29296875 C40.71406967 0.35703876 49.5561523 0.45924842 58.3984375 0.5859375 C55.24302079 3.00801368 52.08486923 4.90013579 48.55078125 6.73828125 C47.39731201 7.34389893 46.24384277 7.9495166 45.05541992 8.57348633 C44.4483017 8.89137115 43.84118347 9.20925598 43.21566772 9.53677368 C30.89358081 16.00459399 19.01163523 22.90481102 7.3984375 30.5859375 C6.11242048 31.42255376 4.82597569 32.25851292 3.5390625 33.09375 C-12.38346165 43.49621572 -27.57929361 54.93480769 -42.6015625 66.5859375 C-43.22546875 67.06804687 -43.849375 67.55015625 -44.4921875 68.046875 C-55.80556486 76.79782074 -66.7542543 85.91314423 -77.3359375 95.5390625 C-79.41917377 97.42115871 -81.53375183 99.25756062 -83.6640625 101.0859375 C-90.868213 107.37504469 -97.48237046 114.24290705 -103.6015625 121.5859375 C-104.02276367 122.08802734 -104.44396484 122.59011719 -104.87792969 123.10742188 C-111.0098665 130.45550482 -116.72496571 137.99851757 -122.0390625 145.9609375 C-122.52270264 146.68522949 -123.00634277 147.40952148 -123.50463867 148.15576172 C-126.79307683 153.16524628 -129.75767935 158.31250156 -132.6015625 163.5859375 C-137.21900182 162.19574072 -139.68589748 159.65331 -142.7265625 156.0859375 C-163.7165655 132.44153595 -188.94345386 119.31576623 -219.6015625 112.5859375 C-219.6015625 102.3559375 -219.6015625 92.1259375 -219.6015625 81.5859375 C-207.45700577 78.54979832 -196.83222891 80.93918547 -186.2265625 87.0859375 C-176.23101217 93.4990638 -168.07830202 101.89234378 -159.953125 110.4921875 C-155.68562663 114.2918206 -151.75092301 116.00968738 -146.0390625 115.9609375 C-145.13027344 115.96867187 -144.22148437 115.97640625 -143.28515625 115.984375 C-139.19041286 115.37642183 -136.61187222 113.76896996 -133.93359375 110.6328125 C-133.43214844 109.87484375 -132.93070312 109.116875 -132.4140625 108.3359375 C-131.51880859 107.005625 -131.51880859 107.005625 -130.60546875 105.6484375 C-129.56549562 104.05908286 -128.52567479 102.46962735 -127.48779297 100.87890625 C-119.40076338 88.50059336 -110.79881297 76.82038907 -100.76171875 65.93359375 C-99.33060701 64.37826255 -97.92118587 62.80266838 -96.53515625 61.20703125 C-87.29461875 50.6050886 -76.81903593 41.05902906 -65.6015625 32.5859375 C-64.95123047 32.09013184 -64.30089844 31.59432617 -63.63085938 31.08349609 C-52.77416524 22.8301929 -41.69992232 15.00882744 -29.95733643 8.05587769 C-27.60807931 6.6458827 -27.60807931 6.6458827 -25.59684753 5.02853394 C-17.60532199 -0.76375312 -9.40809708 -0.18456311 0 0 Z " fill="#4055A4" transform="translate(219.6015625,-0.5859375)"/>
<path d="M0 0 C1.46751239 0.00399142 2.93502584 0.01874717 4.40234375 0.04296875 C5.14806641 0.04361328 5.89378906 0.04425781 6.66210938 0.04492188 C12.19956216 0.09018716 12.19956216 0.09018716 13.33984375 1.23046875 C13.43608968 2.95139528 13.46171973 4.67630257 13.46009827 6.3999176 C13.46216026 8.08060333 13.46216026 8.08060333 13.46426392 9.79524231 C13.458871 11.65532173 13.458871 11.65532173 13.45336914 13.55297852 C13.45351517 14.85034943 13.45366119 16.14772034 13.45381165 17.48440552 C13.45409961 21.05242804 13.44820307 24.62041723 13.44123769 28.18843198 C13.43500396 31.91337495 13.43440034 35.63831861 13.43321228 39.36326599 C13.43009902 46.42164238 13.4218857 53.48000335 13.41186279 60.53837293 C13.40070149 68.57209846 13.39519116 76.60582471 13.39016736 84.63955605 C13.37970309 101.16986932 13.36210375 117.70016707 13.33984375 134.23046875 C10.56797387 134.33834693 7.80028838 134.41770202 5.02734375 134.48046875 C4.24166016 134.51398438 3.45597656 134.5475 2.64648438 134.58203125 C0.47323828 134.61902267 -1.51985526 134.61414509 -3.66015625 134.23046875 C-5.703125 132.21484375 -5.703125 132.21484375 -6.66015625 130.23046875 C-7.335625 130.57980469 -8.01109375 130.92914063 -8.70703125 131.2890625 C-9.5990625 131.74410156 -10.49109375 132.19914063 -11.41015625 132.66796875 C-12.291875 133.12042969 -13.17359375 133.57289063 -14.08203125 134.0390625 C-22.65709016 138.00177912 -34.57704768 137.446037 -43.3828125 134.33984375 C-55.07049054 128.6463608 -61.180086 119.04156304 -65.66015625 107.23046875 C-70.33869032 91.22061148 -68.9162167 72.19160637 -61.47265625 57.35546875 C-55.76005229 47.53170211 -48.67979589 41.12043492 -37.74609375 37.6171875 C-25.73874 35.39110506 -15.89655901 38.31756195 -5.66015625 44.23046875 C-5.6758667 42.33772217 -5.6758667 42.33772217 -5.69189453 40.40673828 C-5.72802524 35.73651961 -5.75103141 31.06631336 -5.77001953 26.39599609 C-5.78009296 24.37253748 -5.7937522 22.34909347 -5.81103516 20.32568359 C-5.83522472 17.42151286 -5.84662574 14.51753414 -5.85546875 11.61328125 C-5.86579132 10.70490509 -5.87611389 9.79652893 -5.88674927 8.86062622 C-5.88697586 7.59954544 -5.88697586 7.59954544 -5.88720703 6.31298828 C-5.89164825 5.57130402 -5.89608948 4.82961975 -5.90066528 4.06546021 C-5.39795545 0.22997746 -3.55875537 0.22408385 0 0 Z " fill="#4055A4" transform="translate(712.66015625,128.76953125)"/>
<path d="M0 0 C11.53637674 9.73533902 17.34807061 22.49245123 18.6875 37.375 C19.67854618 52.66542673 17.31608928 67.50543445 7.4375 79.625 C-0.81375186 88.42752084 -10.12739986 92.26475216 -22.13037109 92.77758789 C-34.68241028 92.99061205 -44.96930935 90.00371136 -54.3125 81.375 C-55.26769531 80.57255859 -55.26769531 80.57255859 -56.2421875 79.75390625 C-64.21215904 72.62197893 -68.53710288 60.91670845 -69.3125 50.375 C-70.16772741 34.02386636 -66.4352842 18.80192416 -56 5.875 C-41.87204415 -8.8193327 -16.93077722 -11.61721946 0 0 Z " fill="#4055A4" transform="translate(614.3125,172.625)"/>
<path d="M0 0 C9.59386687 7.46644224 16.08019265 17.5267789 18.39453125 29.546875 C20.20981812 45.64133806 20.55165436 62.89491628 10.453125 76.46875 C9.91816406 77.11457031 9.38320313 77.76039063 8.83203125 78.42578125 C8.30738281 79.06128906 7.78273438 79.69679688 7.2421875 80.3515625 C0.42859205 87.8385015 -9.13009754 91.91620625 -19.1484375 92.76171875 C-32.76094411 93.05551386 -43.5530046 90.45861903 -54.16796875 81.42578125 C-64.38940933 71.6359562 -68.11695414 59.70028198 -68.52416992 45.69946289 C-68.64621442 30.53266058 -65.0198565 16.62728952 -54.60546875 5.05078125 C-40.08365567 -8.36054024 -16.58370757 -11.44985105 0 0 Z " fill="#4055A4" transform="translate(811.16796875,172.57421875)"/>
<path d="M0 0 C47.19 0 94.38 0 143 0 C139.27995097 3.72004903 135.65272837 6.91390065 131.5 10.0625 C123.44827673 16.27140684 115.78539366 22.98950942 108.7578125 30.34765625 C107 32 107 32 105 32 C104.76410156 32.56589844 104.52820313 33.13179687 104.28515625 33.71484375 C102.70585684 36.52302052 100.77313994 38.34382481 98.4375 40.5625 C88.14656318 50.66149682 79.61554076 62.46629221 71 74 C67.1791391 72.67042099 64.60430538 71.0214234 61.5625 68.375 C42.92792693 53.09575928 24.0564169 48 0 48 C0 32.16 0 16.32 0 0 Z " fill="#4055A4" transform="translate(0,0)"/>
<path d="M0 0 C6.05506257 4.38025803 10.37367221 9.64446809 12.1875 16.97265625 C12.6793339 20.11151285 13.00968897 23.27480703 13.3125 26.4375 C7.0425 26.4375 0.7725 26.4375 -5.6875 26.4375 C-6.38875 24.87 -7.09 23.3025 -7.8125 21.6875 C-10.11610043 17.13821089 -11.88533888 14.5615328 -16.6875 12.4375 C-22.84452626 10.6495943 -27.71594467 11.51143286 -33.5078125 14.13671875 C-36.75502495 16.07457134 -38.23003812 17.96735266 -39.6875 21.4375 C-40.1875 24.60416667 -40.1875 24.60416667 -38.6875 27.4375 C-32.67758867 30.96625528 -26.66642305 32.66087107 -19.9375 34.3125 C-6.23104456 37.87260351 4.60649687 41.77763771 12.3125 54.4375 C14.5207302 61.06219061 14.71148761 71.50383037 11.875 77.9375 C6.59266655 86.19914264 -0.37370962 90.52333477 -9.80078125 92.81640625 C-24.49744123 95.16491774 -39.44365335 93.80555117 -51.81640625 84.90625 C-57.57324219 80.24141056 -60.37181122 75.38456635 -62.6875 68.4375 C-62.875 64.875 -62.875 64.875 -62.6875 61.4375 C-60.6875 59.4375 -60.6875 59.4375 -56.9921875 59.2421875 C-55.51549892 59.255491 -54.03887642 59.27935165 -52.5625 59.3125 C-51.80839844 59.32152344 -51.05429687 59.33054687 -50.27734375 59.33984375 C-48.41392746 59.3634313 -46.55067407 59.39930281 -44.6875 59.4375 C-44.37619141 60.43330078 -44.37619141 60.43330078 -44.05859375 61.44921875 C-42.13220987 66.97044453 -40.44825043 70.4175662 -35.46875 73.59765625 C-31.03351285 75.68883166 -26.58373737 75.65224941 -21.75 75.6875 C-21.04681641 75.708125 -20.34363281 75.72875 -19.61914062 75.75 C-15.08643568 75.78398467 -12.30569014 75.18279344 -8.6875 72.4375 C-6.31709692 70.06709692 -6.34284207 69.37447247 -6.25 66.125 C-6.35893675 62.72617353 -6.60077539 61.57207267 -8.5 58.625 C-14.15119587 54.74672832 -20.39070305 53.00737074 -26.984375 51.32421875 C-38.56706913 48.35161446 -50.8536431 45.14387581 -57.6875 34.4375 C-60.34443956 28.74405808 -60.64531941 22.87011766 -58.96484375 16.84765625 C-55.37233314 7.17551231 -49.80723253 1.99065071 -40.6875 -2.5625 C-27.91737053 -8.33174631 -11.92725086 -7.06429455 0 0 Z " fill="#4055A4" transform="translate(989.6875,171.5625)"/>
<path d="M0 0 C1.46751239 0.00399142 2.93502584 0.01874717 4.40234375 0.04296875 C5.14806641 0.04361328 5.89378906 0.04425781 6.66210938 0.04492188 C12.19956216 0.09018716 12.19956216 0.09018716 13.33984375 1.23046875 C13.49639402 2.71685867 13.59051318 4.20996002 13.65625 5.703125 C13.69814453 6.60224609 13.74003906 7.50136719 13.78320312 8.42773438 C13.82251953 9.37326172 13.86183594 10.31878906 13.90234375 11.29296875 C13.94552734 12.24236328 13.98871094 13.19175781 14.03320312 14.16992188 C14.13963651 16.52328228 14.24165383 18.87675229 14.33984375 21.23046875 C15.94666016 21.32134766 15.94666016 21.32134766 17.5859375 21.4140625 C18.98308766 21.49845412 20.38022232 21.58310281 21.77734375 21.66796875 C22.48439453 21.70728516 23.19144531 21.74660156 23.91992188 21.78710938 C29.2265625 22.1171875 29.2265625 22.1171875 30.33984375 23.23046875 C30.41303996 25.92701729 30.43226912 28.59738333 30.40234375 31.29296875 C30.39783203 32.05158203 30.39332031 32.81019531 30.38867188 33.59179688 C30.37685055 35.47138746 30.35891453 37.35093774 30.33984375 39.23046875 C28.73302734 39.32134766 28.73302734 39.32134766 27.09375 39.4140625 C25.69659984 39.49845412 24.29946518 39.58310281 22.90234375 39.66796875 C22.19529297 39.70728516 21.48824219 39.74660156 20.75976562 39.78710938 C17.25293956 39.70671313 17.25293956 39.70671313 14.33984375 41.23046875 C14.2357464 42.9582377 14.20130876 44.69025363 14.19458008 46.42114258 C14.18820023 47.52931839 14.18182037 48.6374942 14.17524719 49.7792511 C14.17413437 50.98647324 14.17302155 52.19369537 14.171875 53.4375 C14.1685466 54.66957687 14.1652182 55.90165375 14.16178894 57.17106628 C14.15671369 59.78469468 14.1543808 62.39832958 14.15454102 65.01196289 C14.15462232 67.69399758 14.14767977 70.37586164 14.1340332 73.05786133 C14.11574592 76.91362768 14.11080568 80.76919465 14.109375 84.625 C14.10218948 85.82614944 14.09500397 87.02729889 14.08760071 88.2648468 C14.09221565 89.94129524 14.09221565 89.94129524 14.09692383 91.65161133 C14.09549881 92.63454666 14.09407379 93.61748199 14.09260559 94.63020325 C14.35004764 97.33778561 14.86819908 98.95790039 16.33984375 101.23046875 C19.09569467 102.60839421 21.33320846 102.28899815 24.40234375 102.23046875 C26.38115233 102.19282198 28.36122634 102.18384448 30.33984375 102.23046875 C31.33984375 103.23046875 31.33984375 103.23046875 31.4375 106.609375 C31.43082744 108.00393952 31.41886907 109.39848618 31.40234375 110.79296875 C31.39783203 111.50388672 31.39332031 112.21480469 31.38867188 112.94726562 C31.37685239 114.70836888 31.35891638 116.46942911 31.33984375 118.23046875 C23.95029545 121.01834379 16.00850593 121.6674546 8.3828125 119.3203125 C3.09784843 116.85610887 -0.55752564 114.17528628 -3.66015625 109.23046875 C-6.07998401 101.92906043 -6.00596821 94.74524501 -6.07421875 87.10546875 C-6.09295986 85.74925599 -6.11253539 84.39305453 -6.13290405 83.03686523 C-6.18392103 79.49260158 -6.22370806 75.94830024 -6.26104736 72.40386963 C-6.30127952 68.77696649 -6.35228352 65.15021594 -6.40234375 61.5234375 C-6.49874179 54.42589337 -6.58326039 47.32825317 -6.66015625 40.23046875 C-7.73136719 40.16988281 -8.80257812 40.10929687 -9.90625 40.046875 C-11.30340016 39.96248338 -12.70053482 39.87783469 -14.09765625 39.79296875 C-14.80470703 39.75365234 -15.51175781 39.71433594 -16.24023438 39.67382812 C-21.546875 39.34375 -21.546875 39.34375 -22.66015625 38.23046875 C-22.78572787 35.92053493 -22.83591354 33.60628339 -22.84765625 31.29296875 C-22.86183594 30.02582031 -22.87601563 28.75867188 -22.890625 27.453125 C-22.66015625 24.23046875 -22.66015625 24.23046875 -20.66015625 22.23046875 C-18.07951496 22.0854889 -15.61071741 22.0436933 -13.03515625 22.10546875 C-11.97554687 22.11900391 -11.97554687 22.11900391 -10.89453125 22.1328125 C-9.14959527 22.15639272 -7.4048333 22.19226414 -5.66015625 22.23046875 C-5.67062988 21.63508301 -5.68110352 21.03969727 -5.69189453 20.42626953 C-5.73339574 17.73604532 -5.75946329 15.04588838 -5.78515625 12.35546875 C-5.80191406 11.41832031 -5.81867188 10.48117188 -5.8359375 9.515625 C-5.84238281 8.61972656 -5.84882812 7.72382813 -5.85546875 6.80078125 C-5.86594238 5.97336426 -5.87641602 5.14594727 -5.88720703 4.29345703 C-5.44904395 0.31229783 -3.74766152 0.23597869 0 0 Z " fill="#4055A4" transform="translate(1031.66015625,144.76953125)"/>
<path d="M0 0 C1.46751239 0.00399142 2.93502584 0.01874717 4.40234375 0.04296875 C5.14806641 0.04361328 5.89378906 0.04425781 6.66210938 0.04492188 C12.19956216 0.09018716 12.19956216 0.09018716 13.33984375 1.23046875 C13.49639402 2.71685867 13.59051318 4.20996002 13.65625 5.703125 C13.69814453 6.60224609 13.74003906 7.50136719 13.78320312 8.42773438 C13.82251953 9.37326172 13.86183594 10.31878906 13.90234375 11.29296875 C13.94552734 12.24236328 13.98871094 13.19175781 14.03320312 14.16992188 C14.13963651 16.52328228 14.24165383 18.87675229 14.33984375 21.23046875 C15.48324219 21.29105469 16.62664063 21.35164063 17.8046875 21.4140625 C19.2955868 21.49845303 20.7864715 21.58310177 22.27734375 21.66796875 C23.03208984 21.70728516 23.78683594 21.74660156 24.56445312 21.78710938 C30.2265625 22.1171875 30.2265625 22.1171875 31.33984375 23.23046875 C31.41303996 25.92701729 31.43226912 28.59738333 31.40234375 31.29296875 C31.39783203 32.05158203 31.39332031 32.81019531 31.38867188 33.59179688 C31.37685055 35.47138746 31.35891453 37.35093774 31.33984375 39.23046875 C30.19644531 39.29105469 29.05304687 39.35164063 27.875 39.4140625 C26.3841007 39.49845303 24.893216 39.58310177 23.40234375 39.66796875 C22.27022461 39.72694336 22.27022461 39.72694336 21.11523438 39.78710938 C17.42040188 39.67084899 17.42040188 39.67084899 14.33984375 41.23046875 C14.23588994 42.88636294 14.20131533 44.54667023 14.19458008 46.20581055 C14.18820023 47.26748947 14.18182037 48.3291684 14.17524719 49.42301941 C14.17413437 50.58021988 14.17302155 51.73742035 14.171875 52.9296875 C14.1685466 54.11262894 14.1652182 55.29557037 14.16178894 56.51435852 C14.156713 59.02543752 14.15438082 61.5365233 14.15454102 64.04760742 C14.152363 67.88406603 14.13423749 71.72023329 14.11523438 75.55664062 C14.11229888 77.9934886 14.11031513 80.43033794 14.109375 82.8671875 C14.10218948 84.01426682 14.09500397 85.16134613 14.08760071 86.34318542 C14.04597548 93.99794877 14.04597548 93.99794877 16.33984375 101.23046875 C19.17254041 102.64681708 21.81450813 102.57676925 24.96484375 102.79296875 C27.06859375 102.93734375 29.17234375 103.08171875 31.33984375 103.23046875 C31.33984375 108.51046875 31.33984375 113.79046875 31.33984375 119.23046875 C22.88106455 120.92222459 12.5620474 122.21329139 4.91015625 117.41015625 C4.39195312 117.02085937 3.87375 116.6315625 3.33984375 116.23046875 C2.43234375 115.54984375 1.52484375 114.86921875 0.58984375 114.16796875 C-5.83601873 105.7786483 -6.25954295 96.23917235 -6.26953125 86.03125 C-6.2860675 84.71505173 -6.30260376 83.39885345 -6.31964111 82.04277039 C-6.36290218 78.58231643 -6.38322051 75.12211388 -6.39837646 71.66143799 C-6.41809851 68.11463807 -6.46005013 64.56810392 -6.5 61.02148438 C-6.5748536 54.09122067 -6.62335396 47.16103808 -6.66015625 40.23046875 C-11.28015625 40.23046875 -15.90015625 40.23046875 -20.66015625 40.23046875 C-22.1453635 37.26005426 -21.83073845 34.53282428 -21.84765625 31.23046875 C-21.86183594 29.97234375 -21.87601562 28.71421875 -21.890625 27.41796875 C-21.66015625 24.23046875 -21.66015625 24.23046875 -19.66015625 22.23046875 C-16.40234375 22.03515625 -16.40234375 22.03515625 -12.53515625 22.10546875 C-10.61316406 22.13253906 -10.61316406 22.13253906 -8.65234375 22.16015625 C-7.17121094 22.19496094 -7.17121094 22.19496094 -5.66015625 22.23046875 C-5.67062988 21.63508301 -5.68110352 21.03969727 -5.69189453 20.42626953 C-5.73339574 17.73604532 -5.75946329 15.04588838 -5.78515625 12.35546875 C-5.80191406 11.41832031 -5.81867188 10.48117188 -5.8359375 9.515625 C-5.84238281 8.61972656 -5.84882813 7.72382813 -5.85546875 6.80078125 C-5.86594238 5.97336426 -5.87641602 5.14594727 -5.88720703 4.29345703 C-5.44904395 0.31229783 -3.74766152 0.23597869 0 0 Z " fill="#4055A4" transform="translate(505.66015625,144.76953125)"/>
<path d="M0 0 C1.56125851 0.00399299 3.12251789 0.01875614 4.68359375 0.04296875 C5.47701172 0.04361328 6.27042969 0.04425781 7.08789062 0.04492188 C12.98083853 0.09021353 12.98083853 0.09021353 14.12109375 1.23046875 C14.21733968 2.95139528 14.24296973 4.67630257 14.24134827 6.3999176 C14.24272293 7.52037476 14.2440976 8.64083191 14.24551392 9.79524231 C14.24191864 11.03529526 14.23832336 12.27534821 14.23461914 13.55297852 C14.23476517 14.85034943 14.23491119 16.14772034 14.23506165 17.48440552 C14.23534961 21.05242804 14.22945307 24.62041723 14.22248769 28.18843198 C14.21625396 31.91337495 14.21565034 35.63831861 14.21446228 39.36326599 C14.21134902 46.42164238 14.2031357 53.48000335 14.19311279 60.53837293 C14.18195149 68.57209846 14.17644116 76.60582471 14.17141736 84.63955605 C14.16095309 101.16986932 14.14335375 117.70016707 14.12109375 134.23046875 C10.97527952 134.25935389 7.82949906 134.27722798 4.68359375 134.29296875 C3.78576172 134.30134766 2.88792969 134.30972656 1.96289062 134.31835938 C1.10888672 134.32158203 0.25488281 134.32480469 -0.625 134.328125 C-1.41575928 134.33336182 -2.20651855 134.33859863 -3.02124023 134.34399414 C-4.87890625 134.23046875 -4.87890625 134.23046875 -5.87890625 133.23046875 C-5.9794523 131.53951464 -6.0096697 129.84434408 -6.01261902 128.15040588 C-6.016884 127.04966736 -6.02114899 125.94892883 -6.02554321 124.81483459 C-6.02509003 123.59662521 -6.02463684 122.37841583 -6.02416992 121.12329102 C-6.02920784 119.21131424 -6.02920784 119.21131424 -6.03434753 117.26071167 C-6.0432079 113.7545453 -6.0455265 110.24840332 -6.04616332 106.74222684 C-6.04711076 103.81961651 -6.05078715 100.89701192 -6.05433542 97.9744038 C-6.06248774 91.08148436 -6.06491894 84.188578 -6.06420898 77.2956543 C-6.063608 70.1752949 -6.07416218 63.05501122 -6.08995265 55.93467098 C-6.10300994 49.83020786 -6.10839365 43.72576953 -6.10775357 37.62129253 C-6.10749805 33.97151116 -6.11037907 30.32179702 -6.12093163 26.6720295 C-6.13237263 22.60364699 -6.12787694 18.53543507 -6.12182617 14.46704102 C-6.12744568 13.25085587 -6.13306519 12.03467072 -6.13885498 10.78163147 C-6.13466049 9.67807312 -6.130466 8.57451477 -6.12614441 7.43751526 C-6.12668918 6.47461862 -6.12723394 5.51172197 -6.12779522 4.51964664 C-5.66687813 0.28032175 -4.05842988 0.24113531 0 0 Z " fill="#4055A4" transform="translate(852.87890625,128.76953125)"/>
<path d="M0 0 C7.48545809 6.60110017 10.37739758 15.54111045 11.1328125 25.24609375 C11.39875426 36.09430148 10.50096941 47.11031543 3.1328125 55.6171875 C2.545 56.19984375 1.9571875 56.7825 1.3515625 57.3828125 C0.76375 57.97578125 0.1759375 58.56875 -0.4296875 59.1796875 C-5.33211253 63.32446503 -13.14504117 61.99315226 -19.1484375 61.6328125 C-25.1139873 60.49402979 -29.5871906 56.36935925 -33.1484375 51.6328125 C-39.18753779 40.10196239 -39.35215775 28.24379634 -36.17578125 15.81640625 C-33.38040825 7.15393858 -29.50755633 2.08572363 -21.515625 -2.30859375 C-14.06337246 -5.64120173 -6.68111953 -4.65815107 0 0 Z " fill="#F5F6F8" transform="translate(800.1484375,186.3671875)"/>
<path d="M0 0 C6.28529753 5.92389292 10.66448473 13.4002707 11.1081543 22.12744141 C11.17099233 24.66917558 11.18561946 27.20751332 11.1875 29.75 C11.19974609 30.6059375 11.21199219 31.461875 11.22460938 32.34375 C11.24716221 42.26699546 9.82371075 49.57123115 3 57 C-2.71512058 62.18348146 -7.28079967 62.29400444 -14.7734375 62.2109375 C-21.17318684 61.79255195 -25.69726989 59.06284729 -30.42578125 54.8125 C-38.25398303 45.79938431 -37.69041667 33.18730714 -37 22 C-35.7962229 13.93061286 -32.08588764 6.4301279 -25.78515625 1.140625 C-17.49814021 -4.65063413 -8.77316991 -5.72163255 0 0 Z " fill="#F5F6F8" transform="translate(602,186)"/>
<path d="M0 0 C4.20428732 3.722714 7.34423409 7.09089421 7.88989258 12.83618164 C7.92885885 14.61041267 7.92868146 16.38582598 7.89453125 18.16015625 C7.89885666 19.10886093 7.90318207 20.05756561 7.90763855 21.03501892 C7.90801805 23.02935623 7.89108056 25.02376486 7.85766602 27.01782227 C7.81255462 30.05881804 7.83695887 33.09371225 7.86914062 36.13476562 C7.86092118 38.08075112 7.848687 40.02672467 7.83203125 41.97265625 C7.84103958 42.87387711 7.85004791 43.77509796 7.85932922 44.70362854 C7.71115395 50.4227494 6.54953448 53.48741413 2.57125854 57.63511658 C-2.99030379 62.46620199 -8.45052674 62.58511325 -15.515625 62.40625 C-21.45970751 61.71321796 -25.73100693 59.72167395 -29.5859375 55.09765625 C-36.87756938 44.11806026 -37.20872782 29.69308928 -34.8515625 17.04296875 C-32.80189752 9.71870718 -29.45744901 2.88949776 -22.78125 -1.13671875 C-14.91305468 -4.95003271 -7.35243306 -4.84947713 0 0 Z " fill="#F5F6F8" transform="translate(700,186)"/>
<path d="M0 0 C1.57043101 0.01330874 3.14079971 0.03717648 4.7109375 0.0703125 C5.51273438 0.07933594 6.31453125 0.08835938 7.140625 0.09765625 C9.12252273 0.12125027 11.10426731 0.15712185 13.0859375 0.1953125 C14.76666525 3.556768 14.21470579 7.35518718 14.19946289 11.05126953 C14.19960892 11.96839722 14.19975494 12.8855249 14.1999054 13.83044434 C14.19920698 16.87136169 14.1914179 19.9122183 14.18359375 22.953125 C14.18172932 25.05776943 14.18030553 27.1624143 14.17930603 29.26705933 C14.17548285 34.81387525 14.16565424 40.3606651 14.15460205 45.9074707 C14.14438366 51.5646123 14.13980749 57.22175809 14.13476562 62.87890625 C14.12403181 73.98438647 14.10695776 85.08984732 14.0859375 96.1953125 C10.94012327 96.22419764 7.79434281 96.24207173 4.6484375 96.2578125 C3.75060547 96.26619141 2.85277344 96.27457031 1.92773438 96.28320312 C0.64672852 96.28803711 0.64672852 96.28803711 -0.66015625 96.29296875 C-1.45091553 96.29820557 -2.2416748 96.30344238 -3.05639648 96.30883789 C-4.9140625 96.1953125 -4.9140625 96.1953125 -5.9140625 95.1953125 C-6.0199571 92.31462415 -6.06083947 89.45778222 -6.05932617 86.57641602 C-6.06268478 85.67240051 -6.0660434 84.76838501 -6.06950378 83.8369751 C-6.07904422 80.83270921 -6.08095843 77.82849887 -6.08203125 74.82421875 C-6.08524164 72.745356 -6.08860555 70.66649349 -6.09211731 68.58763123 C-6.0981163 64.22369869 -6.09995642 59.85978598 -6.09936523 55.49584961 C-6.09926356 49.89212952 -6.11291789 44.28853599 -6.13013744 38.68484592 C-6.14123243 34.38957633 -6.14328522 30.09433757 -6.14275551 25.7990551 C-6.14393933 23.73250835 -6.14838344 21.6659609 -6.15608788 19.59942818 C-6.1658376 16.71406201 -6.1630297 13.82897374 -6.15698242 10.94360352 C-6.16260193 10.08274643 -6.16822144 9.22188934 -6.17401123 8.33494568 C-6.13104531 0.30594038 -6.13104531 0.30594038 0 0 Z " fill="#4055A4" transform="translate(894.9140625,166.8046875)"/>
<path d="M0 0 C12.21 0 24.42 0 37 0 C34.45915029 1.27042485 31.93021968 2.50667726 29.35546875 3.69921875 C16.67070038 9.69118659 8.28484768 16.11068786 2.9609375 29.640625 C2.25136364 31.74945199 1.59060569 33.85516883 1 36 C0.67 36 0.34 36 0 36 C0 24.12 0 12.24 0 0 Z " fill="#F5F6F8" transform="translate(0,0)"/>
<path d="M0 0 C3.31805312 2.68268124 5.77653863 4.89726511 6.23828125 9.2421875 C6.26277344 10.11101562 6.28726563 10.97984375 6.3125 11.875 C6.34988281 12.73867187 6.38726563 13.60234375 6.42578125 14.4921875 C5.84927494 17.8877568 4.76590885 18.98759456 2 21 C-3.39543975 22.00932573 -8.42956661 21.92378435 -13.1875 19.125 C-15.77830881 16.08750001 -16.17713089 14.59549737 -15.875 10.6875 C-15.42785437 6.98513414 -15.03172104 6.03904128 -12.5625 3 C-8.54354203 -0.13674768 -5.05104144 -0.89022186 0 0 Z " fill="#4055A4" transform="translate(904,134)"/>
</svg>
