<?xml version="1.0" encoding="UTF-8"?>
<!-- Generator: visioncortex VTracer 0.6.2 -->
<svg version="1.1" xmlns="http://www.w3.org/2000/svg" width="1280" height="1280">
<path d="M0 0 C422.4 0 844.8 0 1280 0 C1280 422.4 1280 844.8 1280 1280 C857.6 1280 435.2 1280 0 1280 C0 857.6 0 435.2 0 0 Z " fill="#3E53A2" transform="translate(0,0)"/>
<path d="M0 0 C422.4 0 844.8 0 1280 0 C1280 422.4 1280 844.8 1280 1280 C857.6 1280 435.2 1280 0 1280 C0 1241.39 0 1202.78 0 1163 C0.33 1163 0.66 1163 1 1163 C1.11214844 1164.16789062 1.11214844 1164.16789062 1.2265625 1165.359375 C2.12684798 1173.02062788 3.73192849 1180.17998078 5.9375 1187.5625 C6.31672607 1188.84688965 6.31672607 1188.84688965 6.70361328 1190.15722656 C8.03887897 1194.49277174 9.47922116 1198.1868782 12 1202 C12.61875 1203.485 12.61875 1203.485 13.25 1205 C17.1917495 1214.38218501 21.96350869 1222.65215952 29 1230 C30.25589974 1231.43234846 31.50596358 1232.86983592 32.75 1234.3125 C34.35181034 1236.15757593 35.92481167 1237.92912293 37.703125 1239.60546875 C39 1241 39 1241 39 1243 C39.57854736 1243.27384521 40.15709473 1243.54769043 40.75317383 1243.82983398 C42.97051472 1244.98464382 44.91705444 1246.26942675 46.94921875 1247.72265625 C73.46768772 1266.44140947 98.77364652 1276.51994111 131.46542072 1276.38031673 C133.27329483 1276.38375795 135.08116682 1276.3885099 136.88903448 1276.3944377 C141.82959548 1276.40687383 146.76998241 1276.40083068 151.71054396 1276.39160402 C157.09599332 1276.38486795 162.48141366 1276.39557348 167.86685675 1276.40399987 C177.29667312 1276.41635246 186.72643972 1276.41758527 196.15626144 1276.41144943 C210.17902735 1276.40234947 224.20174732 1276.41039757 238.2245097 1276.42174067 C263.99899428 1276.44197259 289.7734562 1276.44347003 315.54794653 1276.43809005 C319.19678796 1276.43733429 322.8456294 1276.43660668 326.49447083 1276.43590808 C327.21927323 1276.43576899 327.94407563 1276.4356299 328.69084174 1276.43548659 C344.77057265 1276.4325313 360.85030079 1276.43555005 376.93003119 1276.43980437 C379.13228173 1276.44038652 381.33453226 1276.44095537 383.5367828 1276.44152 C389.44063422 1276.44303502 395.34448563 1276.44456193 401.24833704 1276.44611301 C442.4493228 1276.45686586 483.65030601 1276.46157557 524.85129261 1276.45364285 C526.01564273 1276.45342039 526.01564273 1276.45342039 527.20351507 1276.45319343 C535.85887611 1276.45153451 544.51423713 1276.44978492 553.16959814 1276.44800042 C553.95101456 1276.4478394 554.73243098 1276.44767837 555.53752669 1276.44751247 C560.27767586 1276.446535 560.27767586 1276.446535 565.01782503 1276.44555128 C614.99928273 1276.43516013 664.98070522 1276.44292721 714.9621582 1276.46655273 C727.55706431 1276.47249638 740.15197044 1276.47838805 752.74687672 1276.48396206 C753.52244697 1276.48430583 754.29801722 1276.4846496 755.0970896 1276.48500379 C779.00874815 1276.49553493 802.92040376 1276.50112529 826.83206463 1276.5015192 C827.95849033 1276.50153838 827.95849033 1276.50153838 829.10767212 1276.50155794 C845.59438802 1276.50178625 862.08110368 1276.50077991 878.56781944 1276.49864888 C884.46727543 1276.49789415 890.36673141 1276.49721594 896.26618741 1276.49656873 C897.73375215 1276.49640604 899.20131689 1276.49623838 900.66888163 1276.49606572 C924.02903206 1276.4933473 947.38916109 1276.5018869 970.74930692 1276.51591982 C994.93699197 1276.53034332 1019.12463305 1276.52985451 1043.31231717 1276.5125451 C1057.24993659 1276.50298145 1071.18745171 1276.50441843 1085.12506417 1276.52177979 C1094.44041905 1276.53227196 1103.75569452 1276.52816501 1113.07104159 1276.51229975 C1118.37489928 1276.50367166 1123.67855264 1276.50123442 1128.9823998 1276.51656907 C1133.8182846 1276.53041838 1138.65379148 1276.52548635 1143.48965467 1276.50628388 C1145.21771308 1276.50258299 1146.94580278 1276.5054056 1148.6738327 1276.51599697 C1172.61638415 1276.65249838 1194.97751025 1271.24433812 1215 1258 C1216.40883406 1257.21494264 1217.82399414 1256.44091605 1219.25 1255.6875 C1222.27916323 1254.23449711 1222.27916323 1254.23449711 1223 1251 C1223.99 1251 1224.98 1251 1226 1251 C1251.94285318 1232.78216839 1267.67178912 1203.92731156 1274.55444336 1173.57202148 C1276.14492324 1164.39081298 1276.14548063 1155.27892366 1276.1386652 1145.99359798 C1276.1411149 1144.35612953 1276.14399945 1142.71866168 1276.14727798 1141.08119467 C1276.15503622 1136.57666005 1276.15661928 1132.07214114 1276.1572054 1127.56760066 C1276.15893596 1122.66896238 1276.16642218 1117.77033237 1276.17318195 1112.87169892 C1276.18423693 1104.28480272 1276.19160994 1095.69790947 1276.19658089 1087.11100769 C1276.20398915 1074.34257902 1276.21707283 1061.57416059 1276.23132664 1048.80573795 C1276.25514221 1027.32766784 1276.27434428 1005.84959591 1276.29092598 984.37151909 C1276.30736132 963.10250018 1276.3258417 941.83348508 1276.34705925 920.56447029 C1276.34804684 919.57352819 1276.34804684 919.57352819 1276.34905439 918.56256706 C1276.35506893 912.52871296 1276.36110875 906.4948589 1276.36717889 900.46100486 C1276.382268 885.461779 1276.3970402 870.46255284 1276.41159725 855.46332645 C1276.41226039 854.78030834 1276.41292353 854.09729023 1276.41360676 853.3935746 C1276.44583387 820.17180908 1276.47440957 786.95004056 1276.50268555 753.72827148 C1276.5124995 742.20013425 1276.5223296 730.67199703 1276.53222656 719.14385986 C1276.53314726 718.07138989 1276.53314726 718.07138989 1276.53408656 716.97725386 C1276.56264471 683.73717496 1276.59379743 650.49709864 1276.62561907 617.25702272 C1276.62768501 615.09894713 1276.62974983 612.94087153 1276.63181442 610.78279593 C1276.64549842 596.48106894 1276.65922712 582.179342 1276.67298577 567.87761508 C1276.70036146 539.42093459 1276.72747445 510.96425384 1276.75440695 482.50757293 C1276.75568953 481.15240363 1276.7569723 479.79723434 1276.75825526 478.44206505 C1276.84359655 388.29471432 1276.92235256 298.14735764 1277 208 C1273.37 208.33 1269.74 208.66 1266 209 C1266 209.66 1266 210.32 1266 211 C1264.906875 211.40089844 1263.81375 211.80179688 1262.6875 212.21484375 C1257.45571357 214.13615044 1252.22721467 216.0662925 1247 218 C1245.97358398 218.37962891 1244.94716797 218.75925781 1243.88964844 219.15039062 C1240.71679637 220.32595425 1237.54569128 221.50612209 1234.375 222.6875 C1233.38113281 223.05544678 1232.38726563 223.42339355 1231.36328125 223.80249023 C1226.23543102 225.71810118 1221.20791939 227.75242655 1216.22314453 230.01318359 C1212.19913376 231.79937418 1208.0960301 233.38768413 1204 235 C1187.87940686 241.38155135 1171.86061053 247.96261927 1155.91259766 254.76416016 C1153.35675968 255.84862385 1150.79617163 256.91961235 1148.23046875 257.98046875 C1136.94653526 262.65258699 1125.82332728 267.66021134 1114.70605469 272.71264648 C1106.69308655 276.35129306 1098.65058981 279.9055469 1090.5625 283.375 C1083.56264597 286.38460491 1076.70037695 289.55385697 1069.92211914 293.03271484 C1064.69185042 295.70254789 1059.36702532 298.11865502 1054 300.5 C1047.24593884 303.50073837 1040.59270688 306.6320981 1034.00561523 309.98266602 C1028.90447252 312.57121985 1023.74465527 315.0158199 1018.5625 317.4375 C1011.68453525 320.65979078 1004.95883648 324.09190427 998.27368164 327.69506836 C992.74039919 330.65815176 987.10689704 333.34158405 981.40527344 335.96313477 C975.28507567 338.80201311 969.34597375 341.94130548 963.44335938 345.20703125 C958.31633723 348 958.31633723 348 955 348 C955 348.66 955 349.32 955 350 C953.94683594 350.4846875 952.89367187 350.969375 951.80859375 351.46875 C942.73470804 355.67382487 933.85558003 360.11824404 925.06738281 364.88769531 C920.27074472 367.46840896 915.435707 369.97770479 910.60791016 372.49951172 C906.67145991 374.56361507 902.77975742 376.67719374 898.93017578 378.90087891 C892.8709849 382.3512302 886.70712252 385.62012208 880.5703125 388.9296875 C871.56462304 393.79419342 862.64827174 398.69422271 853.984375 404.1484375 C850.210807 406.48963021 846.35927205 408.67909972 842.49658203 410.86914062 C837.93403649 413.45919929 833.39744618 416.09054106 828.875 418.75 C828.17890625 419.15911621 827.4828125 419.56823242 826.765625 419.98974609 C822.71143024 422.38000126 818.67428032 424.79665577 814.6484375 427.234375 C813.30096436 428.04890137 813.30096436 428.04890137 811.92626953 428.87988281 C810.17779599 429.93834573 808.4312841 431.00005776 806.68701172 432.06542969 C802.87876389 434.37080577 799.23635308 436.55344041 795 438 C795 438.66 795 439.32 795 440 C794.31035156 440.36351562 793.62070312 440.72703125 792.91015625 441.1015625 C787.50174687 443.99495023 782.29921813 447.00015115 777.265625 450.5078125 C774.87898223 452.0797048 772.4143406 453.4744517 769.92724609 454.87988281 C766.43962965 456.90688867 763.06845682 459.11369324 759.6875 461.3125 C758.94129395 461.795979 758.19508789 462.27945801 757.42626953 462.77758789 C752.62939781 465.89935329 747.90400672 469.09950441 743.2734375 472.46484375 C740.90562647 474.06372645 738.45078398 475.44922349 735.96289062 476.85083008 C732.22922102 479.03669859 728.65557541 481.46748787 725.0625 483.875 C723.92264648 484.63103516 723.92264648 484.63103516 722.75976562 485.40234375 C718.28363422 488.391528 713.9926383 491.49742084 709.82202148 494.90283203 C708 496 708 496 704 496 C704 496.66 704 497.32 704 498 C702.04736328 499.5847168 702.04736328 499.5847168 699.3203125 501.44921875 C697.83144531 502.47499023 697.83144531 502.47499023 696.3125 503.52148438 C695.260625 504.23626953 694.20875 504.95105469 693.125 505.6875 C691.08586562 507.08713486 689.04680256 508.48687365 687.0078125 509.88671875 C686.00226318 510.57411133 684.99671387 511.26150391 683.96069336 511.96972656 C677.80959615 516.1877957 671.69321459 520.45180595 665.6875 524.875 C661.68993124 527.79716646 657.64546364 530.6359438 653.5625 533.4375 C649.42250623 536.27825651 645.36735315 539.20422989 641.375 542.25 C636.18538219 546.1921798 630.83856316 549.85424292 625.4375 553.5 C619.20913102 557.71260903 613.23320259 562.0063017 607.51953125 566.90234375 C602.03481317 571.46869043 596.20588765 575.59109462 590.4050293 579.74291992 C583.94996495 584.36355438 577.5659813 589.01662458 571.41796875 594.04296875 C568.48615783 596.41588841 565.4960765 598.70933978 562.5 601 C558.60959409 603.97707498 554.74922958 606.98497195 550.9375 610.0625 C547.28975985 613.00326771 543.57320487 615.83013373 539.8125 618.625 C536.0291593 621.44565859 532.35868951 624.31027911 528.81640625 627.42578125 C526.54229276 629.39667961 524.21005746 631.28921588 521.875 633.1875 C517.66437435 636.61730908 513.50835387 640.1031461 509.375 643.625 C505.72701749 646.73202693 502.05747257 649.77551314 498.25 652.6875 C494.46243828 655.58670634 490.92684771 658.70038348 487.38671875 661.89453125 C483.8872477 664.98162601 480.25499626 667.89871126 476.6328125 670.83984375 C473.66311261 673.2764076 470.76527271 675.78067296 467.890625 678.328125 C466.61847522 679.45308389 465.33697601 680.56754853 464.046875 681.671875 C460.43422817 684.77249314 457.01295159 687.96670798 453.6875 691.375 C450.49094258 694.62090393 447.18793558 697.53681519 443.625 700.375 C438.66078862 704.3463691 434.2078372 708.66186691 429.80078125 713.2265625 C427.68770895 715.31900508 425.57729516 717.25043035 423.32421875 719.1796875 C418.11691247 723.68618711 413.33214649 728.59852573 408.5 733.5 C403.08758461 738.99006841 397.68800165 744.40567445 391.83300781 749.42529297 C380.85571546 758.85570528 370.67512462 769.22157211 360.4375 779.4375 C359.87315247 779.99925934 359.30880493 780.56101868 358.72735596 781.13980103 C352.59956459 787.24541528 346.58715169 793.38830724 341 800 C340.01571338 801.13011879 339.03006616 802.2590542 338.04296875 803.38671875 C326.83677096 816.00026376 326.83677096 816.00026376 317.34765625 829.87109375 C316.90292969 830.57363281 316.45820313 831.27617188 316 832 C315.34 832 314.68 832 314 832 C313.71511719 832.57621094 313.43023437 833.15242187 313.13671875 833.74609375 C310.81346038 838.35269197 308.430402 842.95656857 305.46875 847.1875 C297.16386791 859.09638752 292.32076694 873.38651423 287.47143555 886.98193359 C285.16781641 893.42583065 282.8246855 899.01096998 278 904 C277.43925781 904.59941406 276.87851562 905.19882812 276.30078125 905.81640625 C265.52595658 916.27498869 252.75695384 918.41562644 238.4609375 918.21484375 C228.65803184 917.88562643 219.45072051 914.14726229 212.25 907.4375 C211.5075 906.633125 210.765 905.82875 210 905 C209.13375 904.34 208.2675 903.68 207.375 903 C202.38262406 898.79589395 200.93862632 893.23232493 199.1796875 887.1796875 C198.79331619 885.86942093 198.79331619 885.86942093 198.3991394 884.53268433 C195.59233066 874.85076861 193.21984759 865.06580034 190.87634277 855.26342773 C189.58577398 849.87260343 188.27299924 844.48718907 186.9609375 839.1015625 C186.57585022 837.5196109 186.57585022 837.5196109 186.1829834 835.90570068 C177.81800171 801.61681786 168.78861477 767.263546 152 736 C151.51297607 735.09193604 151.51297607 735.09193604 151.01611328 734.16552734 C146.240104 725.35285119 140.83420153 717.13690408 135 709 C134.36449219 708.08734375 133.72898438 707.1746875 133.07421875 706.234375 C118.99588697 686.29735857 101.2696327 666.27796062 81.19921875 652.27734375 C78.71076863 650.50595618 76.30088651 648.69422962 73.89453125 646.81640625 C51.44710517 629.47231309 27.15585672 619.68987415 0 611 C0 409.37 0 207.74 0 0 Z " fill="#3E53A2" transform="translate(0,0)"/>
<path d="M0 0 C339.57 0 679.14 0 1029 0 C1026.09200255 1.93866496 1024.23029434 2.60045928 1020.8984375 3.4453125 C1019.86332031 3.71351807 1018.82820312 3.98172363 1017.76171875 4.25805664 C1016.64410156 4.54414795 1015.52648437 4.83023926 1014.375 5.125 C1002.04961699 8.36006952 989.93263974 12.07054522 977.83447266 16.06542969 C975.17784514 16.94136165 972.51746645 17.80461605 969.85546875 18.6640625 C968.29928323 19.17127423 966.74328057 19.67904751 965.1875 20.1875 C964.52556641 20.40092041 963.86363281 20.61434082 963.18164062 20.83422852 C958.18580474 22.48888037 953.37365051 24.49800422 948.52661133 26.54370117 C944.45146141 28.22651663 940.34844751 29.8254473 936.234375 31.41015625 C935.46434647 31.7072197 934.69431793 32.00428314 933.9009552 32.31034851 C930.71011444 33.54020819 927.51852598 34.76807377 924.32519531 35.99145508 C921.96021082 36.89831983 919.59719046 37.81015769 917.234375 38.72265625 C916.17159332 39.12750999 916.17159332 39.12750999 915.08734131 39.5405426 C910.85712543 41.17853055 906.81415147 43.03454945 902.77548218 45.09953308 C900.69474754 46.15481414 898.58211814 47.09913913 896.43359375 48.0078125 C895.22823975 48.52045654 895.22823975 48.52045654 893.99853516 49.04345703 C893.15339355 49.40036621 892.30825195 49.75727539 891.4375 50.125 C889.57922285 50.91618715 887.72115765 51.70787226 885.86328125 52.5 C884.90373535 52.90863281 883.94418945 53.31726562 882.95556641 53.73828125 C866.76099882 60.65167339 850.59503809 67.60322034 834.88671875 75.57421875 C831.77761184 77.10983989 828.64151961 78.57881239 825.5 80.04663086 C816.54589282 84.23759068 807.76081312 88.67065225 799.0390625 93.32421875 C795.42396425 95.25289602 791.79206514 97.14530827 788.1484375 99.01953125 C778.83615672 103.81571445 769.68344396 108.63120965 760.84765625 114.265625 C756.94823272 116.64058254 752.87446213 118.57971692 748.76953125 120.5703125 C745.41089033 122.30411021 742.37748729 124.34727827 739.27734375 126.5 C735.96787562 128.6798212 732.48445204 130.48954339 728.96875 132.3125 C726.47354831 133.73082517 724.13403122 135.22458007 721.7578125 136.828125 C717.06860323 139.99066032 712.24669037 142.8796527 707.375 145.75 C699.27719906 150.56208533 691.41310105 155.63169599 683.61816406 160.91552734 C680.3581208 163.10036624 677.02765273 165.17467894 673.70703125 167.265625 C669.59646307 169.89923578 665.56505645 172.64907994 661.53125 175.3984375 C659 177 659 177 656 178 C656 178.66 656 179.32 656 180 C655.45400146 180.28697754 654.90800293 180.57395508 654.34545898 180.86962891 C648.5819639 183.97442192 643.31949327 187.48345953 638.0625 191.375 C636.47043114 192.53958088 634.87798698 193.70364887 633.28515625 194.8671875 C632.53637207 195.41600586 631.78758789 195.96482422 631.01611328 196.53027344 C628.69928344 198.21921939 626.35742194 199.86825403 624 201.5 C607.06342759 213.27689372 590.47732068 225.59170559 574 238 C572.08364883 239.43792056 570.16697623 240.87541284 568.25 242.3125 C567.26773438 243.04984375 566.28546875 243.7871875 565.2734375 244.546875 C562.86526036 246.3533811 560.4528255 248.15409013 558.0390625 249.953125 C551.43308018 254.88250948 544.86977139 259.83732751 538.46484375 265.02734375 C535.635085 267.29204766 532.75711199 269.49028073 529.875 271.6875 C523.38343883 276.64751919 517.0510228 281.79439261 510.7265625 286.96484375 C507.73909364 289.40578773 504.7210722 291.80397899 501.6875 294.1875 C497.14884894 297.79709832 492.91532157 301.70074857 488.65234375 305.62890625 C486.33201619 307.70319024 483.9791205 309.62187841 481.5 311.5 C476.96311331 314.94121638 472.80760747 318.73820894 468.62109375 322.59375 C466.43980902 324.5962409 464.23693728 326.56040612 462 328.5 C452.6300993 336.32323556 452.6300993 336.32323556 444.3125 345.1875 C442.4567531 347.44448947 440.84638968 349.0496786 438.640625 350.8984375 C433.20765783 355.60019758 428.1678514 360.68230537 423.09985352 365.76977539 C421.4407268 367.43426277 419.77631949 369.09333447 418.11132812 370.75195312 C412.53099267 376.32874637 407.09842797 381.97392499 402 388 C400.66902866 389.50209623 399.33619077 391.00254483 398 392.5 C396.98679687 393.64082031 396.98679687 393.64082031 395.953125 394.8046875 C394.75913465 396.14673265 393.56198605 397.48598691 392.359375 398.8203125 C381.13298815 411.40912494 370.32534066 424.95232047 361 439 C359.95885873 440.48098997 358.91283696 441.95855502 357.86328125 443.43359375 C350.78903627 453.38927522 344.05670092 463.39418683 338 474 C337.65243652 474.60569824 337.30487305 475.21139648 336.94677734 475.83544922 C335.24042422 478.81036704 333.54221046 481.78954489 331.8515625 484.7734375 C329.74950888 488.43650985 327.56074399 492.03880833 325.32421875 495.62109375 C323.98534707 498.0263234 322.89707746 500.48204969 321.8371582 503.02075195 C320.92184021 505.18478899 319.95830442 507.32265059 318.984375 509.4609375 C316.63146282 514.62966433 314.30990908 519.81192625 312 525 C311.67950684 525.71478516 311.35901367 526.42957031 311.02880859 527.16601562 C305.55347361 539.47727787 301.76435072 552.22392177 297.87402344 565.10742188 C297.5855957 566.06197266 297.29716797 567.01652344 297 568 C296.76571289 568.77666016 296.53142578 569.55332031 296.29003906 570.35351562 C292.39212186 583.03846926 286.70839013 592.33288266 275.18359375 599.33984375 C263.57099201 605.39549496 250.51403971 607.09802527 237.6875 604.26953125 C226.04750024 600.308698 216.2058664 593.19908153 210.3125 582.375 C209.45552284 580.86396135 208.59740017 579.35357195 207.73828125 577.84375 C207.29436035 577.05484375 206.85043945 576.2659375 206.39306641 575.453125 C197.1464728 559.17030471 187.59012194 543.07418901 175.375 528.8359375 C173.076701 526.09158705 170.96047624 523.28326178 168.875 520.375 C161.65950856 510.33605538 153.6992693 501.34568596 145.1796875 492.40625 C142.46624632 489.55845518 139.78387334 486.68719433 137.1328125 483.78125 C136.52002441 483.11246826 135.90723633 482.44368652 135.27587891 481.75463867 C134.13496276 480.50690868 132.99879357 479.25481221 131.86865234 477.99731445 C128.4804651 474.30949515 124.91497128 471.3396986 120.85986328 468.40649414 C118.33166792 466.49458373 116.20261297 464.27435932 114 462 C81.07836935 431.69084575 43.21960674 414.37270562 0 404 C0 270.68 0 137.36 0 0 Z " fill="#F2F6F7" transform="translate(0,0)"/>
<path d="M0 0 C40.26 0 80.52 0 122 0 C122 422.4 122 844.8 122 1280 C-300.4 1280 -722.8 1280 -1158 1280 C-1158 1241.39 -1158 1202.78 -1158 1163 C-1157.67 1163 -1157.34 1163 -1157 1163 C-1156.88785156 1164.16789062 -1156.88785156 1164.16789062 -1156.7734375 1165.359375 C-1155.87315202 1173.02062788 -1154.26807151 1180.17998078 -1152.0625 1187.5625 C-1151.68327393 1188.84688965 -1151.68327393 1188.84688965 -1151.29638672 1190.15722656 C-1149.96112103 1194.49277174 -1148.52077884 1198.1868782 -1146 1202 C-1145.38125 1203.485 -1145.38125 1203.485 -1144.75 1205 C-1140.8082505 1214.38218501 -1136.03649131 1222.65215952 -1129 1230 C-1127.74410026 1231.43234846 -1126.49403642 1232.86983592 -1125.25 1234.3125 C-1123.64818966 1236.15757593 -1122.07518833 1237.92912293 -1120.296875 1239.60546875 C-1119 1241 -1119 1241 -1119 1243 C-1118.42145264 1243.27384521 -1117.84290527 1243.54769043 -1117.24682617 1243.82983398 C-1115.02948528 1244.98464382 -1113.08294556 1246.26942675 -1111.05078125 1247.72265625 C-1084.53231228 1266.44140947 -1059.22635348 1276.51994111 -1026.53457928 1276.38031673 C-1024.72670517 1276.38375795 -1022.91883318 1276.3885099 -1021.11096552 1276.3944377 C-1016.17040452 1276.40687383 -1011.23001759 1276.40083068 -1006.28945604 1276.39160402 C-1000.90400668 1276.38486795 -995.51858634 1276.39557348 -990.13314325 1276.40399987 C-980.70332688 1276.41635246 -971.27356028 1276.41758527 -961.84373856 1276.41144943 C-947.82097265 1276.40234947 -933.79825268 1276.41039757 -919.7754903 1276.42174067 C-894.00100572 1276.44197259 -868.2265438 1276.44347003 -842.45205347 1276.43809005 C-838.80321204 1276.43733429 -835.1543706 1276.43660668 -831.50552917 1276.43590808 C-830.78072677 1276.43576899 -830.05592437 1276.4356299 -829.30915826 1276.43548659 C-813.22942735 1276.4325313 -797.14969921 1276.43555005 -781.06996881 1276.43980437 C-778.86771827 1276.44038652 -776.66546774 1276.44095537 -774.4632172 1276.44152 C-768.55936578 1276.44303502 -762.65551437 1276.44456193 -756.75166296 1276.44611301 C-715.5506772 1276.45686586 -674.34969399 1276.46157557 -633.14870739 1276.45364285 C-631.98435727 1276.45342039 -631.98435727 1276.45342039 -630.79648493 1276.45319343 C-622.14112389 1276.45153451 -613.48576287 1276.44978492 -604.83040186 1276.44800042 C-604.04898544 1276.4478394 -603.26756902 1276.44767837 -602.46247331 1276.44751247 C-597.72232414 1276.446535 -597.72232414 1276.446535 -592.98217497 1276.44555128 C-543.00071727 1276.43516013 -493.01929478 1276.44292721 -443.0378418 1276.46655273 C-430.44293569 1276.47249638 -417.84802956 1276.47838805 -405.25312328 1276.48396206 C-404.47755303 1276.48430583 -403.70198278 1276.4846496 -402.9029104 1276.48500379 C-378.99125185 1276.49553493 -355.07959624 1276.50112529 -331.16793537 1276.5015192 C-330.04150967 1276.50153838 -330.04150967 1276.50153838 -328.89232788 1276.50155794 C-312.40561198 1276.50178625 -295.91889632 1276.50077991 -279.43218056 1276.49864888 C-273.53272457 1276.49789415 -267.63326859 1276.49721594 -261.73381259 1276.49656873 C-260.26624785 1276.49640604 -258.79868311 1276.49623838 -257.33111837 1276.49606572 C-233.97096794 1276.4933473 -210.61083891 1276.5018869 -187.25069308 1276.51591982 C-163.06300803 1276.53034332 -138.87536695 1276.52985451 -114.68768283 1276.5125451 C-100.75006341 1276.50298145 -86.81254829 1276.50441843 -72.87493583 1276.52177979 C-63.55958095 1276.53227196 -54.24430548 1276.52816501 -44.92895841 1276.51229975 C-39.62510072 1276.50367166 -34.32144736 1276.50123442 -29.0176002 1276.51656907 C-24.1817154 1276.53041838 -19.34620852 1276.52548635 -14.51034533 1276.50628388 C-12.78228692 1276.50258299 -11.05419722 1276.5054056 -9.3261673 1276.51599697 C14.61638415 1276.65249838 36.97751025 1271.24433812 57 1258 C58.40883406 1257.21494264 59.82399414 1256.44091605 61.25 1255.6875 C64.27916323 1254.23449711 64.27916323 1254.23449711 65 1251 C65.99 1251 66.98 1251 68 1251 C93.94285318 1232.78216839 109.67178912 1203.92731156 116.55444336 1173.57202148 C118.14492324 1164.39081298 118.14548063 1155.27892366 118.1386652 1145.99359798 C118.1411149 1144.35612953 118.14399945 1142.71866168 118.14727798 1141.08119467 C118.15503622 1136.57666005 118.15661928 1132.07214114 118.1572054 1127.56760066 C118.15893596 1122.66896238 118.16642218 1117.77033237 118.17318195 1112.87169892 C118.18423693 1104.28480272 118.19160994 1095.69790947 118.19658089 1087.11100769 C118.20398915 1074.34257902 118.21707283 1061.57416059 118.23132664 1048.80573795 C118.25514221 1027.32766784 118.27434428 1005.84959591 118.29092598 984.37151909 C118.30736132 963.10250018 118.3258417 941.83348508 118.34705925 920.56447029 C118.34804684 919.57352819 118.34804684 919.57352819 118.34905439 918.56256706 C118.35506893 912.52871296 118.36110875 906.4948589 118.36717889 900.46100486 C118.382268 885.461779 118.3970402 870.46255284 118.41159725 855.46332645 C118.41226039 854.78030834 118.41292353 854.09729023 118.41360676 853.3935746 C118.44583387 820.17180908 118.47440957 786.95004056 118.50268555 753.72827148 C118.5124995 742.20013425 118.5223296 730.67199703 118.53222656 719.14385986 C118.53314726 718.07138989 118.53314726 718.07138989 118.53408656 716.97725386 C118.56264471 683.73717496 118.59379743 650.49709864 118.62561907 617.25702272 C118.62768501 615.09894713 118.62974983 612.94087153 118.63181442 610.78279593 C118.64549842 596.48106894 118.65922712 582.179342 118.67298577 567.87761508 C118.70036146 539.42093459 118.72747445 510.96425384 118.75440695 482.50757293 C118.75568953 481.15240363 118.7569723 479.79723434 118.75825526 478.44206505 C118.84359655 388.29471432 118.92235256 298.14735764 119 208 C115.37 208.33 111.74 208.66 108 209 C108 209.66 108 210.32 108 211 C106.906875 211.40089844 105.81375 211.80179688 104.6875 212.21484375 C99.45571357 214.13615044 94.22721467 216.0662925 89 218 C87.97358398 218.37962891 86.94716797 218.75925781 85.88964844 219.15039062 C82.71679637 220.32595425 79.54569128 221.50612209 76.375 222.6875 C75.38113281 223.05544678 74.38726563 223.42339355 73.36328125 223.80249023 C68.23543102 225.71810118 63.20791939 227.75242655 58.22314453 230.01318359 C54.19913376 231.79937418 50.0960301 233.38768413 46 235 C29.87940686 241.38155135 13.86061053 247.96261927 -2.08740234 254.76416016 C-4.64324032 255.84862385 -7.20382837 256.91961235 -9.76953125 257.98046875 C-21.05346474 262.65258699 -32.17667272 267.66021134 -43.29394531 272.71264648 C-51.30691345 276.35129306 -59.34941019 279.9055469 -67.4375 283.375 C-74.43735403 286.38460491 -81.29962305 289.55385697 -88.07788086 293.03271484 C-93.30814958 295.70254789 -98.63297468 298.11865502 -104 300.5 C-110.75406116 303.50073837 -117.40729312 306.6320981 -123.99438477 309.98266602 C-129.09552748 312.57121985 -134.25534473 315.0158199 -139.4375 317.4375 C-146.31546475 320.65979078 -153.04116352 324.09190427 -159.72631836 327.69506836 C-165.25960081 330.65815176 -170.89310296 333.34158405 -176.59472656 335.96313477 C-182.71492433 338.80201311 -188.65402625 341.94130548 -194.55664062 345.20703125 C-199.68366277 348 -199.68366277 348 -203 348 C-203 348.66 -203 349.32 -203 350 C-204.05316406 350.4846875 -205.10632813 350.969375 -206.19140625 351.46875 C-215.26529196 355.67382487 -224.14441997 360.11824404 -232.93261719 364.88769531 C-237.72925528 367.46840896 -242.564293 369.97770479 -247.39208984 372.49951172 C-251.32854009 374.56361507 -255.22024258 376.67719374 -259.06982422 378.90087891 C-265.1290151 382.3512302 -271.29287748 385.62012208 -277.4296875 388.9296875 C-286.43537696 393.79419342 -295.35172826 398.69422271 -304.015625 404.1484375 C-307.789193 406.48963021 -311.64072795 408.67909972 -315.50341797 410.86914062 C-320.06596351 413.45919929 -324.60255382 416.09054106 -329.125 418.75 C-329.82109375 419.15911621 -330.5171875 419.56823242 -331.234375 419.98974609 C-335.28856976 422.38000126 -339.32571968 424.79665577 -343.3515625 427.234375 C-344.69903564 428.04890137 -344.69903564 428.04890137 -346.07373047 428.87988281 C-347.82220401 429.93834573 -349.5687159 431.00005776 -351.31298828 432.06542969 C-355.12123611 434.37080577 -358.76364692 436.55344041 -363 438 C-363 438.66 -363 439.32 -363 440 C-363.68964844 440.36351562 -364.37929688 440.72703125 -365.08984375 441.1015625 C-370.49825313 443.99495023 -375.70078187 447.00015115 -380.734375 450.5078125 C-383.12101777 452.0797048 -385.5856594 453.4744517 -388.07275391 454.87988281 C-391.56037035 456.90688867 -394.93154318 459.11369324 -398.3125 461.3125 C-399.05870605 461.795979 -399.80491211 462.27945801 -400.57373047 462.77758789 C-405.37060219 465.89935329 -410.09599328 469.09950441 -414.7265625 472.46484375 C-417.09437353 474.06372645 -419.54921602 475.44922349 -422.03710938 476.85083008 C-425.77077898 479.03669859 -429.34442459 481.46748787 -432.9375 483.875 C-434.07735352 484.63103516 -434.07735352 484.63103516 -435.24023438 485.40234375 C-439.71636578 488.391528 -444.0073617 491.49742084 -448.17797852 494.90283203 C-450 496 -450 496 -454 496 C-454 496.66 -454 497.32 -454 498 C-455.95263672 499.5847168 -455.95263672 499.5847168 -458.6796875 501.44921875 C-460.16855469 502.47499023 -460.16855469 502.47499023 -461.6875 503.52148438 C-462.739375 504.23626953 -463.79125 504.95105469 -464.875 505.6875 C-466.91413438 507.08713486 -468.95319744 508.48687365 -470.9921875 509.88671875 C-471.99773682 510.57411133 -473.00328613 511.26150391 -474.03930664 511.96972656 C-480.19040385 516.1877957 -486.30678541 520.45180595 -492.3125 524.875 C-496.31006876 527.79716646 -500.35453636 530.6359438 -504.4375 533.4375 C-508.57749377 536.27825651 -512.63264685 539.20422989 -516.625 542.25 C-521.81461781 546.1921798 -527.16143684 549.85424292 -532.5625 553.5 C-538.79086898 557.71260903 -544.76679741 562.0063017 -550.48046875 566.90234375 C-555.96518683 571.46869043 -561.79411235 575.59109462 -567.5949707 579.74291992 C-574.05003505 584.36355438 -580.4340187 589.01662458 -586.58203125 594.04296875 C-589.51384217 596.41588841 -592.5039235 598.70933978 -595.5 601 C-599.39040591 603.97707498 -603.25077042 606.98497195 -607.0625 610.0625 C-610.71024015 613.00326771 -614.42679513 615.83013373 -618.1875 618.625 C-621.9708407 621.44565859 -625.64131049 624.31027911 -629.18359375 627.42578125 C-631.45770724 629.39667961 -633.78994254 631.28921588 -636.125 633.1875 C-640.33562565 636.61730908 -644.49164613 640.1031461 -648.625 643.625 C-652.27298251 646.73202693 -655.94252743 649.77551314 -659.75 652.6875 C-663.53756172 655.58670634 -667.07315229 658.70038348 -670.61328125 661.89453125 C-674.1127523 664.98162601 -677.74500374 667.89871126 -681.3671875 670.83984375 C-684.33688739 673.2764076 -687.23472729 675.78067296 -690.109375 678.328125 C-691.38152478 679.45308389 -692.66302399 680.56754853 -693.953125 681.671875 C-697.56577183 684.77249314 -700.98704841 687.96670798 -704.3125 691.375 C-707.50905742 694.62090393 -710.81206442 697.53681519 -714.375 700.375 C-719.33921138 704.3463691 -723.7921628 708.66186691 -728.19921875 713.2265625 C-730.31229105 715.31900508 -732.42270484 717.25043035 -734.67578125 719.1796875 C-739.88308753 723.68618711 -744.66785351 728.59852573 -749.5 733.5 C-754.91241539 738.99006841 -760.31199835 744.40567445 -766.16699219 749.42529297 C-777.14428454 758.85570528 -787.32487538 769.22157211 -797.5625 779.4375 C-798.12684753 779.99925934 -798.69119507 780.56101868 -799.27264404 781.13980103 C-805.40043541 787.24541528 -811.41284831 793.38830724 -817 800 C-817.98428662 801.13011879 -818.96993384 802.2590542 -819.95703125 803.38671875 C-831.16322904 816.00026376 -831.16322904 816.00026376 -840.65234375 829.87109375 C-841.09707031 830.57363281 -841.54179688 831.27617188 -842 832 C-842.66 832 -843.32 832 -844 832 C-844.28488281 832.57621094 -844.56976562 833.15242187 -844.86328125 833.74609375 C-847.18653962 838.35269197 -849.569598 842.95656857 -852.53125 847.1875 C-860.83613209 859.09638752 -865.67923306 873.38651423 -870.52856445 886.98193359 C-872.83218359 893.42583065 -875.1753145 899.01096998 -880 904 C-880.56074219 904.59941406 -881.12148438 905.19882812 -881.69921875 905.81640625 C-892.47404342 916.27498869 -905.24304616 918.41562644 -919.5390625 918.21484375 C-929.34196816 917.88562643 -938.54927949 914.14726229 -945.75 907.4375 C-946.4925 906.633125 -947.235 905.82875 -948 905 C-948.86625 904.34 -949.7325 903.68 -950.625 903 C-955.61737594 898.79589395 -957.06137368 893.23232493 -958.8203125 887.1796875 C-959.20668381 885.86942093 -959.20668381 885.86942093 -959.6008606 884.53268433 C-962.40766934 874.85076861 -964.78015241 865.06580034 -967.12365723 855.26342773 C-968.41422602 849.87260343 -969.72700076 844.48718907 -971.0390625 839.1015625 C-971.42414978 837.5196109 -971.42414978 837.5196109 -971.8170166 835.90570068 C-980.18199829 801.61681786 -989.21138523 767.263546 -1006 736 C-1006.48702393 735.09193604 -1006.48702393 735.09193604 -1006.98388672 734.16552734 C-1011.759896 725.35285119 -1017.16579847 717.13690408 -1023 709 C-1023.63550781 708.08734375 -1024.27101563 707.1746875 -1024.92578125 706.234375 C-1039.00411303 686.29735857 -1056.7303673 666.27796062 -1076.80078125 652.27734375 C-1079.28923137 650.50595618 -1081.69911349 648.69422962 -1084.10546875 646.81640625 C-1106.55289483 629.47231309 -1130.84414328 619.68987415 -1158 611 C-1158 580.64 -1158 550.28 -1158 519 C-1146.72318979 520.12768102 -1146.72318979 520.12768102 -1141.92578125 521.34765625 C-1140.32307373 521.75479858 -1140.32307373 521.75479858 -1138.68798828 522.17016602 C-1137.57407715 522.46463623 -1136.46016602 522.75910645 -1135.3125 523.0625 C-1134.13929199 523.37050537 -1132.96608398 523.67851074 -1131.75732422 523.99584961 C-1115.64170374 528.32631135 -1099.98801902 533.63089065 -1085 541 C-1083.53288669 541.67673664 -1082.06399335 542.34962198 -1080.59375 543.01953125 C-1055.13256768 554.68761419 -1029.94563295 570.14596055 -1009.1640625 589.05078125 C-1007.34907815 590.68557762 -1005.51083085 592.27555031 -1003.6484375 593.85546875 C-991.5432794 604.14854325 -979.2125005 614.93110394 -970 628 C-970 628.66 -970 629.32 -970 630 C-969.43410156 630.21398437 -968.86820313 630.42796875 -968.28515625 630.6484375 C-954.54312194 638.7762048 -943.33992916 663.12012875 -935.40478516 676.61181641 C-934.4741766 678.19388329 -933.53642331 679.77177083 -932.59130859 681.34521484 C-925.22843066 693.6840343 -919.49127133 706.51424008 -914.125 719.8125 C-913.81212036 720.58751862 -913.49924072 721.36253723 -913.17687988 722.16104126 C-910.42584595 729.00970125 -907.70821047 735.86169393 -905.32714844 742.84912109 C-905.05973846 743.63155685 -904.79232849 744.41399261 -904.51681519 745.22013855 C-904.01257591 746.71182904 -903.51785386 748.20678172 -903.03421021 749.70527649 C-901.56353101 754.08181334 -901.56353101 754.08181334 -898 757 C-897.47792969 756.34515625 -896.95585938 755.6903125 -896.41796875 755.015625 C-891.3821844 748.77160518 -886.15431635 742.79773389 -880.703125 736.91796875 C-875.63862836 731.45094709 -870.63769112 725.92952671 -865.8125 720.25 C-861.85818248 715.69373719 -857.54587795 711.49262576 -853.23754883 707.27441406 C-850.36332333 704.44259318 -847.60682492 701.58115126 -844.99609375 698.50390625 C-839.68511667 692.35443181 -833.84519619 686.69672861 -828.09399414 680.96362305 C-826.0673702 678.94235732 -824.04614453 676.91580426 -822.02539062 674.88867188 C-816.36114509 669.22185241 -810.72781014 663.58611035 -804.61352539 658.3996582 C-801.98782324 656.12198375 -799.60121373 653.62277132 -797.1875 651.125 C-792.61966759 646.47009215 -787.82831899 642.33437647 -782.71484375 638.27734375 C-779.79794056 635.83050266 -777.16131464 633.22171327 -774.5 630.5 C-770.17275677 626.08068777 -765.6546035 622.16593427 -760.8203125 618.31640625 C-757.75032868 615.79493754 -754.84195711 613.14542187 -751.9375 610.4375 C-747.69217744 606.48952572 -743.32209119 602.79629567 -738.7578125 599.22265625 C-735.28239047 596.42164331 -731.92453974 593.49788069 -728.5625 590.5625 C-722.47058392 585.25117213 -716.28793929 580.07872019 -710 575 C-708.70532975 573.94710552 -707.41108951 572.89368218 -706.1171875 571.83984375 C-696.22167252 563.78196738 -686.31596 555.7527206 -676.17822266 548.00024414 C-671.18469344 544.16934165 -666.2710643 540.24212179 -661.3762207 536.28613281 C-657.66534902 533.29615155 -653.89471157 530.40547364 -650.07348633 527.55810547 C-646.4269045 524.8179094 -642.84312565 521.9971797 -639.25 519.1875 C-632.22476506 513.70973675 -625.1475512 508.31741389 -618 503 C-615.26907091 500.9606834 -612.54064558 498.91803801 -609.8125 496.875 C-609.12824951 496.36404785 -608.44399902 495.8530957 -607.73901367 495.32666016 C-603.31410291 492.01455299 -598.96317631 488.62776827 -594.69921875 485.109375 C-593 484 -593 484 -590 484 C-589.67 483.01 -589.34 482.02 -589 481 C-587.3125 479.59765625 -587.3125 479.59765625 -585 478.0625 C-583.65035156 477.14791016 -583.65035156 477.14791016 -582.2734375 476.21484375 C-581.19320312 475.48394531 -580.11296875 474.75304687 -579 474 C-576.19957751 472.05405097 -573.41142527 470.09092458 -570.625 468.125 C-569.8930542 467.60945557 -569.1611084 467.09391113 -568.40698242 466.56274414 C-563.06398127 462.78629599 -557.81246978 458.91025187 -552.61328125 454.9375 C-549.80422188 452.85484911 -546.91514313 450.93075972 -544 449 C-541.38358372 447.13977339 -538.77564905 445.2684984 -536.171875 443.390625 C-534 442 -534 442 -532 442 C-532 441.34 -532 440.68 -532 440 C-529.98046875 438.5546875 -529.98046875 438.5546875 -527.1875 436.875 C-522.24548589 433.82351247 -517.55242919 430.56198582 -512.8984375 427.08984375 C-509.00451251 424.28222937 -505.00359701 421.64786182 -501 419 C-499.56989134 418.04750704 -498.1401947 417.09439514 -496.7109375 416.140625 C-494.48379418 414.65577811 -492.25655607 413.17107436 -490.02905273 411.68676758 C-486.31260108 409.210021 -482.59733168 406.73158101 -478.88671875 404.24609375 C-472.52523917 399.98802598 -466.13774889 395.78975889 -459.6640625 391.703125 C-456.81287251 389.88037011 -453.99859955 388.0089559 -451.1875 386.125 C-444.51521064 381.65963261 -437.77498712 377.30711005 -431 373 C-430.39736328 372.61618164 -429.79472656 372.23236328 -429.17382812 371.83691406 C-419.94548912 365.97276848 -410.58137443 360.3633977 -401.15234375 354.82836914 C-395.54705945 351.53019725 -389.99679577 348.16323521 -384.5 344.6875 C-377.45113058 340.23474249 -370.26816583 336.08521045 -363 332 C-356.51344153 328.33059649 -350.048882 324.63399863 -343.6484375 320.81640625 C-326.31669373 310.48004047 -326.31669373 310.48004047 -318.02734375 306.5078125 C-314.04992835 304.52680302 -310.18761287 302.360388 -306.3125 300.1875 C-298.33502356 295.72048078 -290.29077123 291.39978578 -282.19482422 287.15185547 C-279.92168946 285.95890221 -277.65012266 284.76300741 -275.37890625 283.56640625 C-269.78200867 280.61808697 -264.18297752 277.67382933 -258.58398438 274.72949219 C-256.97909839 273.8854651 -255.3742804 273.04130871 -253.76953125 272.19702148 C-252.17344524 271.35748154 -250.577091 270.51845134 -248.98046875 269.67993164 C-245.23331479 267.71028368 -241.49199762 265.73137676 -237.765625 263.72265625 C-229.22159122 259.1287544 -220.57324477 254.85313239 -211.79296875 250.72827148 C-206.32172386 248.1449054 -200.94731816 245.4392377 -195.625 242.5625 C-186.99460017 237.90156262 -178.15243974 233.71585285 -169.2890625 229.51953125 C-165.18059927 227.57238885 -161.11233946 225.56593076 -157.0625 223.5 C-153.52111975 221.70901543 -150.02467068 220.21269209 -146.2890625 218.890625 C-141.10425568 216.87332815 -136.10785055 214.36938208 -131.08251953 211.98681641 C-127.55857979 210.31697298 -124.02878792 208.65956655 -120.5 207 C-119.05857895 206.32164603 -117.61717261 205.6432608 -116.17578125 204.96484375 C-115.12318115 204.46960205 -115.12318115 204.46960205 -114.04931641 203.96435547 C-112.73634359 203.34650431 -111.42350554 202.72836666 -110.11083984 202.10986328 C-95.33064054 195.1505054 -80.54134028 188.18844505 -65.26171875 182.38671875 C-62.28144196 181.11965496 -59.58818576 179.61926233 -56.80151367 177.97924805 C-53.76696736 176.32976095 -50.56119469 175.21462097 -47.3125 174.0625 C-45.89392272 173.54463265 -44.47595729 173.02508635 -43.05859375 172.50390625 C-42.0219458 172.12322998 -42.0219458 172.12322998 -40.96435547 171.73486328 C-34.01379504 169.13466605 -27.22715485 166.09912532 -20.41015625 163.171875 C15.51218047 147.77451559 52.02834658 133.91224182 88.73413086 120.50244141 C89.824217 120.10403046 89.824217 120.10403046 90.93632507 119.6975708 C92.33445676 119.18679632 93.73281498 118.67664142 95.13142395 118.16717529 C100.61117168 116.16363718 106.03990326 114.0451881 111.45654297 111.8762207 C114 111 114 111 117 111 C112.33914477 84.62638016 102.19947345 63.80771161 85.47265625 42.8515625 C84.31280428 41.39328708 83.20801129 39.8912158 82.125 38.375 C79.49104147 35.431164 76.55402255 33.18264419 73.40234375 30.8125 C71.89356327 29.67416806 70.40309692 28.51069804 68.94140625 27.3125 C48.76451158 10.83533838 25.6092353 3.60953247 0 1 C0 0.67 0 0.34 0 0 Z " fill="#F2F6F7" transform="translate(1158,0)"/>
<path d="M0 0 C1.02772349 -0.00427212 2.05544698 -0.00854425 3.1143136 -0.01294583 C6.54479752 -0.02115642 9.97404839 0.00627877 13.40441895 0.03364563 C15.86862153 0.03505651 18.33282622 0.03426335 20.79702759 0.03143311 C26.09545124 0.03029593 31.39349391 0.04444143 36.69181824 0.0726223 C44.35214013 0.11333961 52.01231333 0.12628788 59.6727317 0.13256226 C72.10258443 0.14349259 84.53227266 0.17673239 96.96203613 0.22407532 C109.03299133 0.27000366 121.10390177 0.3053795 133.17492676 0.32661438 C134.29189742 0.32858481 134.29189742 0.32858481 135.43143314 0.33059504 C139.1672856 0.33712045 142.90313837 0.34343894 146.63899136 0.34965456 C177.6084462 0.40144826 208.5776966 0.48985192 239.54699707 0.60127258 C236.63899962 2.53993755 234.77729141 3.20173187 231.44543457 4.04658508 C230.41031738 4.31479065 229.3752002 4.58299622 228.30871582 4.85932922 C227.19109863 5.14542053 226.07348145 5.43151184 224.92199707 5.72627258 C212.59661406 8.96134211 200.47963681 12.6718178 188.38146973 16.66670227 C185.72484221 17.54263424 183.06446352 18.40588863 180.40246582 19.26533508 C178.8462803 19.77254681 177.29027764 20.2803201 175.73449707 20.78877258 C175.07256348 21.00219299 174.41062988 21.2156134 173.7286377 21.4355011 C168.73280181 23.09015295 163.92064758 25.09927681 159.0736084 27.14497375 C154.99845849 28.82778921 150.89544458 30.42671988 146.78137207 32.01142883 C146.01134354 32.30849228 145.241315 32.60555573 144.44795227 32.91162109 C141.25711151 34.14148078 138.06552305 35.36934635 134.87219238 36.59272766 C132.50720789 37.49959241 130.14418753 38.41143027 127.78137207 39.32392883 C126.71859039 39.72878258 126.71859039 39.72878258 125.63433838 40.14181519 C121.4041225 41.77980314 117.36114854 43.63582203 113.32247925 45.70080566 C111.24174461 46.75608672 109.12911521 47.70041171 106.98059082 48.60908508 C105.77523682 49.12172913 105.77523682 49.12172913 104.54553223 49.64472961 C103.70039062 50.00163879 102.85524902 50.35854797 101.98449707 50.72627258 C100.12621992 51.51745973 98.26815472 52.30914484 96.41027832 53.10127258 C95.45073242 53.5099054 94.49118652 53.91853821 93.50256348 54.33955383 C77.30799589 61.25294598 61.14203516 68.20449292 45.43371582 76.17549133 C42.32460891 77.71111247 39.18851668 79.18008497 36.04699707 80.64790344 C27.09288989 84.83886326 18.30781019 89.27192483 9.58605957 93.92549133 C5.97096132 95.8541686 2.33906221 97.74658086 -1.30456543 99.62080383 C-10.61684621 104.41698704 -19.76955897 109.23248223 -28.60534668 114.86689758 C-32.50477021 117.24185513 -36.57854079 119.1809895 -40.68347168 121.17158508 C-44.0421126 122.90538279 -47.07551564 124.94855085 -50.17565918 127.10127258 C-53.48512731 129.28109379 -56.96855089 131.09081597 -60.48425293 132.91377258 C-62.97945462 134.33209775 -65.31897171 135.82585265 -67.69519043 137.42939758 C-72.3843997 140.5919329 -77.20631256 143.48092528 -82.07800293 146.35127258 C-90.17580387 151.16335791 -98.03990188 156.23296857 -105.83483887 161.51679993 C-109.09488213 163.70163882 -112.4253502 165.77595152 -115.74597168 167.86689758 C-119.85653986 170.50050836 -123.88794648 173.25035253 -127.92175293 175.99971008 C-130.45300293 177.60127258 -130.45300293 177.60127258 -133.45300293 178.60127258 C-133.45300293 179.26127258 -133.45300293 179.92127258 -133.45300293 180.60127258 C-133.99900146 180.88825012 -134.545 181.17522766 -135.10754395 181.47090149 C-140.87103903 184.5756945 -146.13350966 188.08473211 -151.39050293 191.97627258 C-152.98257179 193.14085346 -154.57501595 194.30492145 -156.16784668 195.46846008 C-156.91663086 196.01727844 -157.66541504 196.5660968 -158.43688965 197.13154602 C-160.75371949 198.82049197 -163.09558099 200.46952661 -165.45300293 202.10127258 C-182.38957534 213.87816631 -198.97568225 226.19297818 -215.45300293 238.60127258 C-217.3693541 240.03919315 -219.2860267 241.47668542 -221.20300293 242.91377258 C-222.18526855 243.65111633 -223.16753418 244.38846008 -224.17956543 245.14814758 C-226.58774257 246.95465368 -229.00017743 248.75536271 -231.41394043 250.55439758 C-238.01992275 255.48378206 -244.58323154 260.43860009 -250.98815918 265.62861633 C-253.81791793 267.89332024 -256.69589094 270.09155331 -259.57800293 272.28877258 C-266.0695641 277.24879177 -272.40198013 282.39566519 -278.72644043 287.56611633 C-281.71390929 290.00706031 -284.73193073 292.40525157 -287.76550293 294.78877258 C-292.30415399 298.39837091 -296.53768136 302.30202115 -300.80065918 306.23017883 C-303.12098674 308.30446282 -305.47388243 310.22315099 -307.95300293 312.10127258 C-312.48988962 315.54248896 -316.64539546 319.33948152 -320.83190918 323.19502258 C-323.01319391 325.19751348 -325.21606565 327.16167871 -327.45300293 329.10127258 C-336.82290363 336.92450814 -336.82290363 336.92450814 -345.14050293 345.78877258 C-346.99624983 348.04576205 -348.60661324 349.65095119 -350.81237793 351.49971008 C-356.2453451 356.20147016 -361.28515153 361.28357795 -366.35314941 366.37104797 C-368.01227613 368.03553536 -369.67668344 369.69460705 -371.3416748 371.35322571 C-376.92201026 376.93001895 -382.35457496 382.57519758 -387.45300293 388.60127258 C-388.78397427 390.10336881 -390.11681216 391.60381741 -391.45300293 393.10127258 C-392.46620605 394.2420929 -392.46620605 394.2420929 -393.49987793 395.40596008 C-394.69386828 396.74800523 -395.89101688 398.08725949 -397.09362793 399.42158508 C-408.32001478 412.01039753 -419.12766227 425.55359306 -428.45300293 439.60127258 C-429.4941442 441.08226256 -430.54016597 442.5598276 -431.58972168 444.03486633 C-438.66396666 453.99054781 -445.39630201 463.99545941 -451.45300293 474.60127258 C-451.80056641 475.20697083 -452.14812988 475.81266907 -452.50622559 476.4367218 C-454.21257871 479.41163962 -455.91079247 482.39081747 -457.60144043 485.37471008 C-459.70349405 489.03778243 -461.89225894 492.64008092 -464.12878418 496.22236633 C-465.46765586 498.62759598 -466.55592547 501.08332227 -467.61584473 503.62202454 C-468.53116272 505.78606157 -469.4946985 507.92392318 -470.46862793 510.06221008 C-472.82154011 515.23093691 -475.14309385 520.41319883 -477.45300293 525.60127258 C-477.77349609 526.31605774 -478.09398926 527.0308429 -478.42419434 527.76728821 C-483.89952932 540.07855045 -487.68865221 552.82519435 -491.57897949 565.70869446 C-491.86740723 566.66324524 -492.15583496 567.61779602 -492.45300293 568.60127258 C-492.68729004 569.37793274 -492.92157715 570.1545929 -493.16296387 570.95478821 C-497.06088107 583.63974185 -502.7446128 592.93415524 -514.26940918 599.94111633 C-525.88201092 605.99676755 -538.93896322 607.69929785 -551.76550293 604.87080383 C-563.40550269 600.90997058 -573.24713653 593.80035411 -579.14050293 582.97627258 C-579.99748009 581.46523394 -580.85560276 579.95484453 -581.71472168 578.44502258 C-582.15864258 577.65611633 -582.60256348 576.86721008 -583.05993652 576.05439758 C-592.30653013 559.7715773 -601.86288099 543.67546159 -614.07800293 529.43721008 C-616.37630193 526.69285963 -618.49252669 523.88453437 -620.57800293 520.97627258 C-627.79349437 510.93732796 -635.75373363 501.94695854 -644.27331543 493.00752258 C-646.98675661 490.15972777 -649.66912959 487.28846691 -652.32019043 484.38252258 C-652.93297852 483.71374084 -653.5457666 483.04495911 -654.17712402 482.35591125 C-655.31804017 481.10818126 -656.45420936 479.85608479 -657.58435059 478.59858704 C-660.97253783 474.91076773 -664.53803165 471.94097119 -668.59313965 469.00776672 C-671.12133501 467.09585631 -673.25038996 464.8756319 -675.45300293 462.60127258 C-708.37463358 432.29211834 -746.23339619 414.9739782 -789.45300293 404.60127258 C-789.45300293 375.23127258 -789.45300293 345.86127258 -789.45300293 315.60127258 C-770.41520286 317.98099759 -770.41520286 317.98099759 -763.95300293 319.28877258 C-763.13750977 319.45320862 -762.3220166 319.61764465 -761.48181152 319.7870636 C-742.39623089 323.81536528 -723.33071507 329.6881136 -705.71472168 338.08174133 C-702.43419357 339.61003527 -699.11542759 340.98277632 -695.76550293 342.35127258 C-686.95888271 346.09897874 -678.72909028 350.8145626 -670.45300293 355.60127258 C-669.80718262 355.97123352 -669.1613623 356.34119446 -668.49597168 356.72236633 C-660.63816216 361.23853896 -653.0669772 366.12237779 -645.57800293 371.22627258 C-644.80529053 371.75261292 -644.03257812 372.27895325 -643.2364502 372.82124329 C-638.54264029 376.05771107 -634.00914329 379.45145912 -629.52868652 382.97676086 C-625.83386551 385.86847329 -622.03417098 388.61718912 -618.24987793 391.39033508 C-615.42391547 393.6242663 -612.98611162 396.04426664 -610.45300293 398.60127258 C-608.63839627 400.12387357 -606.80473621 401.62404716 -604.95300293 403.10127258 C-601.20945936 406.08769498 -597.82327532 409.20245915 -594.45300293 412.60127258 C-593.48642858 413.55967742 -592.51860946 414.51682816 -591.54968262 415.47285461 C-588.70637909 418.28024851 -585.86943791 421.09398004 -583.0345459 423.90986633 C-581.82249722 425.11189808 -580.60865433 426.31212362 -579.39294434 427.51045227 C-572.64366443 434.16611965 -566.17768929 440.82139091 -560.31677246 448.28608704 C-556.81956658 452.63033688 -553.09556599 456.50623054 -548.45300293 459.60127258 C-548.12727295 458.98421448 -547.80154297 458.36715637 -547.46594238 457.73139954 C-530.80369327 426.28151332 -511.66548236 396.47371654 -489.23034668 368.80830383 C-487.51784351 366.68178891 -485.85822493 364.52251103 -484.20300293 362.35127258 C-476.97020426 353.02129257 -469.08177524 344.18105362 -461.09753418 335.49189758 C-459.39518641 333.69362523 -459.39518641 333.69362523 -458.45300293 331.60127258 C-457.79300293 331.60127258 -457.13300293 331.60127258 -456.45300293 331.60127258 C-456.21065918 331.04157776 -455.96831543 330.48188293 -455.71862793 329.90522766 C-448.71103623 317.14854501 -434.67439519 306.63526444 -424.42858887 296.39155579 C-421.94624268 293.90931153 -419.47087885 291.4202269 -416.99717712 288.92937183 C-415.05641003 286.97736668 -413.11099328 285.03004447 -411.16433716 283.0839138 C-409.81502089 281.73288465 -408.47022663 280.37734387 -407.12561035 279.02163696 C-401.20873425 273.12631487 -394.98000131 267.80667879 -388.45300293 262.60127258 C-385.21219226 259.90345501 -382.06158278 257.20985243 -379.07800293 254.22627258 C-372.25755717 247.40582682 -364.97945115 241.14140918 -357.47644043 235.08955383 C-353.86662233 232.11868287 -350.34785758 229.05265001 -346.82800293 225.97627258 C-342.19149273 221.93088276 -337.52225994 217.99348476 -332.62097168 214.26924133 C-330.04216099 212.28518338 -327.52966151 210.22909951 -325.01550293 208.16377258 C-317.0190808 201.60004275 -308.94811292 195.19742049 -300.65222168 189.01533508 C-297.23219357 186.45004921 -293.87146401 183.81204548 -290.51550293 181.16377258 C-268.76980509 164.0111469 -246.51025731 147.52134657 -224.01867676 131.36201477 C-219.04733831 127.78085942 -214.14613074 124.11722033 -209.26550293 120.41377258 C-202.50210177 115.29951587 -195.55061294 110.55067448 -188.45397949 105.91377258 C-184.77208266 103.49870702 -181.11470075 101.04680383 -177.45300293 98.60127258 C-175.92831494 97.58557013 -174.40357581 96.56994445 -172.87878418 95.55439758 C-170.05942734 93.67523469 -167.24425186 91.79011263 -164.43347168 89.89814758 C-163.16928543 89.04898576 -161.90496618 88.20002189 -160.64050293 87.35127258 C-160.03907471 86.94642639 -159.43764648 86.5415802 -158.81799316 86.12446594 C-155.79869628 84.10735711 -152.75565696 82.16151904 -149.63269043 80.30830383 C-149.02401123 79.945755 -148.41533203 79.58320618 -147.78820801 79.20967102 C-146.12167377 78.22641352 -144.44582672 77.2589893 -142.76940918 76.29267883 C-141.62278809 75.45543274 -141.62278809 75.45543274 -140.45300293 74.60127258 C-140.45300293 73.61127258 -140.45300293 72.62127258 -140.45300293 71.60127258 C-137.45300293 70.60127258 -137.45300293 70.60127258 -134.45300293 70.60127258 C-132.46476869 69.59209559 -132.46476869 69.59209559 -130.39050293 68.18721008 C-129.20400146 67.42126526 -129.20400146 67.42126526 -127.99353027 66.6398468 C-127.15515625 66.09086731 -126.31678223 65.54188782 -125.45300293 64.97627258 C-119.50739438 61.14909935 -113.58202745 57.45577381 -107.32409668 54.15596008 C-103.4581585 52.06256771 -99.67661046 49.83509241 -95.89050293 47.60127258 C-94.78303711 46.94795959 -94.78303711 46.94795959 -93.65319824 46.28144836 C-89.78198587 43.99218014 -85.92423685 41.68232345 -82.07800293 39.35127258 C-77.85215837 36.80144095 -73.53295701 34.45150211 -69.18737793 32.11299133 C-65.70000015 30.18496962 -62.31474845 28.10957193 -58.93737793 25.99580383 C-55.87251003 24.27542987 -52.68418251 22.98259317 -49.45300293 21.60127258 C-47.12344453 20.3950374 -44.81578456 19.17258198 -42.51550293 17.91377258 C-36.44011922 14.62386746 -30.30370435 11.48821916 -24.08410645 8.47944641 C-20.27234881 6.61852236 -20.27234881 6.61852236 -16.70389891 4.33754474 C-11.15770361 0.33877087 -6.71771689 -0.10304896 0 0 Z " fill="#F2F6F7" transform="translate(789.4530029296875,-0.6012725830078125)"/>
<path d="M0 0 C69.96 0 139.92 0 212 0 C208.80308522 3.19691478 207.49803824 4.49928875 203.69921875 6.21875 C202.48008789 6.78142578 202.48008789 6.78142578 201.23632812 7.35546875 C200.39521484 7.73316406 199.55410156 8.11085938 198.6875 8.5 C192.95773436 11.10889096 187.41561562 13.78427603 182 17 C180.4840625 17.89912109 180.4840625 17.89912109 178.9375 18.81640625 C176.97802191 19.98114921 175.01968803 21.14781925 173.0625 22.31640625 C169.78692871 24.11713486 166.4356042 25.53143258 163 27 C160.98079571 28.09015551 158.9813754 29.21751284 157 30.375 C155.78042786 31.08285879 154.56033549 31.78982172 153.33984375 32.49609375 C152.32253174 33.08559814 152.32253174 33.08559814 151.28466797 33.68701172 C147.72602222 35.73214923 144.14508385 37.73736028 140.56689453 39.74804688 C129.53220096 45.95148832 129.53220096 45.95148832 118.625 52.375 C117.79403809 52.87447144 117.79403809 52.87447144 116.94628906 53.3840332 C113.95368341 55.19106853 110.97337674 57.01649159 108.00146484 58.85742188 C105.18122262 60.60401395 102.35589732 62.34152617 99.52581787 64.07208252 C97.83727926 65.10977194 96.15708391 66.16099821 94.47705078 67.21240234 C92.92026611 68.16300537 92.92026611 68.16300537 91.33203125 69.1328125 C90.40108643 69.70918457 89.4701416 70.28555664 88.51098633 70.87939453 C86 72 86 72 83.66674805 71.67919922 C83.11672119 71.45506348 82.56669434 71.23092773 82 71 C82.33 71.99 82.66 72.98 83 74 C82.41323486 74.3810791 81.82646973 74.7621582 81.22192383 75.15478516 C44.6077105 98.84229219 44.6077105 98.84229219 9 124 C7.54715788 125.07069645 6.09400356 126.14096934 4.640625 127.2109375 C1.34794475 129.63534705 -1.94360779 132.06127575 -5.234375 134.48828125 C-9.31799495 137.49893412 -13.40737351 140.50160789 -17.5 143.5 C-18.71226423 144.38928932 -19.92450339 145.27861282 -21.13671875 146.16796875 C-23.15695536 147.64989615 -25.17831598 149.13022722 -27.20166016 150.60791016 C-38.27661711 158.69657158 -49.18680356 166.96246061 -59.98095703 175.421875 C-62.91286442 177.71351338 -65.8607539 179.98400399 -68.8125 182.25 C-69.83601563 183.03632813 -70.85953125 183.82265625 -71.9140625 184.6328125 C-74.05400494 186.27433797 -76.19466151 187.91490455 -78.3359375 189.5546875 C-87.76725462 196.7833092 -97.04112759 204.1878162 -106.2265625 211.7265625 C-108.03017691 213.20501825 -109.83729103 214.67921839 -111.6484375 216.1484375 C-117.44677188 220.85852144 -123.14212019 225.67350139 -128.79907227 230.55126953 C-133.2636036 234.39271477 -137.8120139 238.11933669 -142.390625 241.82421875 C-146.01079142 244.84283057 -149.46391079 248.03118931 -152.90625 251.25 C-155 253 -155 253 -158 254 C-158.29519531 254.60070312 -158.59039062 255.20140625 -158.89453125 255.8203125 C-160.33828135 258.66699998 -162.15908613 259.93239204 -164.6875 261.875 C-169.17138024 265.43882011 -173.44481773 269.14434939 -177.625 273.05859375 C-178.2622551 273.6546492 -178.89951019 274.25070465 -179.55607605 274.86482239 C-187.76226241 282.59448229 -195.72324966 290.5734449 -203.68432617 298.55395508 C-206.35023574 301.22531286 -209.0215661 303.89116881 -211.69335938 306.55664062 C-213.39615477 308.26009542 -215.0986407 309.96385962 -216.80078125 311.66796875 C-217.99432976 312.85848091 -217.99432976 312.85848091 -219.21199036 314.07304382 C-219.94423325 314.80843887 -220.67647614 315.54383392 -221.4309082 316.30151367 C-222.07405472 316.94545578 -222.71720123 317.58939789 -223.37983704 318.25285339 C-225.18831951 320.1102025 -225.18831951 320.1102025 -227 323 C-227.66 323 -228.32 323 -229 323 C-229.4021875 323.86625 -229.4021875 323.86625 -229.8125 324.75 C-231.02929189 327.05550043 -232.30333879 329.02056192 -234 331 C-234.66 331 -235.32 331 -236 331 C-236.33837891 331.81791016 -236.33837891 331.81791016 -236.68359375 332.65234375 C-238.39146753 335.69813645 -240.6707424 338.052968 -243.0625 340.5625 C-248.3067947 346.17307658 -253.20468437 351.9991581 -258 358 C-258.62003906 358.763125 -259.24007813 359.52625 -259.87890625 360.3125 C-285.23719074 391.65301027 -307.50246711 425.15384931 -326 461 C-326.33 460.01 -326.66 459.02 -327 458 C-328.32108015 457.30937025 -329.65679694 456.64655067 -331 456 C-335.85890353 451.77284683 -340.08664074 446.97926198 -344.06640625 441.9296875 C-348.79084686 436.11262541 -353.90588136 430.82193858 -359.23095703 425.56323242 C-360.76797224 424.0447444 -362.29656323 422.51813308 -363.82421875 420.99023438 C-368.06787175 416.76761203 -372.29664015 412.71476183 -377 409 C-378.66666667 407.33333333 -380.33333333 405.66666667 -382 404 C-383.83520832 402.4563425 -385.68964694 400.93526149 -387.5625 399.4375 C-390.90263068 396.76446893 -393.99254817 394.03801537 -397 391 C-416.81235601 373.80584488 -439.87739493 360.16165341 -463 348 C-463.69287109 347.63358398 -464.38574219 347.26716797 -465.09960938 346.88964844 C-473.21886488 342.61967728 -481.48623792 339.04468333 -490.04125977 335.76416016 C-491.45054435 335.21435824 -492.85407044 334.64971177 -494.25366211 334.07568359 C-517.85196652 324.41208724 -541.88719481 319.36744438 -567 315 C-567 286.62 -567 258.24 -567 229 C-532.60113403 221.06180016 -502.26057459 226.65656552 -472.17480469 245.12011719 C-464.45845035 249.95974251 -457.12636002 255.30643285 -449.875 260.8125 C-448.80886475 261.62110474 -448.80886475 261.62110474 -447.72119141 262.44604492 C-443.87240357 265.41249285 -440.36303052 268.4762786 -437 272 C-431.41704668 277.7832502 -431.41704668 277.7832502 -425.375 283.0625 C-423.29392268 284.76022097 -421.83094566 286.3287268 -420.125 288.375 C-415.97047448 293.26321656 -411.2530818 297.51174663 -406.50634766 301.81201172 C-402.38639814 305.57769466 -398.24138401 309.42742739 -395 314 C-395 314.66 -395 315.32 -395 316 C-394.12601562 316.43590454 -394.12601562 316.43590454 -393.234375 316.88061523 C-391.23519966 317.88216888 -389.24175728 318.8939588 -387.25 319.91015625 C-385.83338817 320.62771243 -384.41671991 321.34515722 -383 322.0625 C-382.2884375 322.42666016 -381.576875 322.79082031 -380.84375 323.16601562 C-380.1528125 323.51470703 -379.461875 323.86339844 -378.75 324.22265625 C-378.12609375 324.53984619 -377.5021875 324.85703613 -376.859375 325.18383789 C-367.86045559 329.13386252 -355.6231119 327.97096502 -346.5625 324.9375 C-331.71814592 318.83312072 -324.77298797 309.19734659 -317.13574219 295.47216797 C-313.53142259 289.03837043 -309.4186593 282.9761143 -305.2734375 276.88232422 C-304.02375667 275.03511578 -302.79021356 273.17827346 -301.5625 271.31640625 C-293.39821686 258.9388284 -285.11908163 246.5901079 -275.71875 235.109375 C-274.13671537 233.16778705 -272.61953373 231.19681757 -271.125 229.1875 C-265.00264694 220.96890649 -258.90646233 212.82386211 -251.99609375 205.24609375 C-249.74177696 202.70943591 -247.62386416 200.08416149 -245.5 197.4375 C-242.16808538 193.32699365 -238.676915 189.56485348 -234.88671875 185.87890625 C-232.47282276 183.47500569 -230.26783682 180.92379478 -228.0456543 178.34375 C-220.06640271 169.20175033 -211.66676426 160.50526421 -203.07397461 151.94360352 C-201.30008997 150.17512781 -199.53168223 148.40129956 -197.76367188 146.62695312 C-192.54873655 141.40896477 -187.33421727 136.25634461 -181.71459961 131.46948242 C-179.9888619 129.99045419 -178.32223663 128.46433857 -176.6640625 126.91015625 C-175.90416016 126.19956055 -175.90416016 126.19956055 -175.12890625 125.47460938 C-174.10019753 124.50869197 -173.07428066 123.53979492 -172.05078125 122.56835938 C-168.22011529 119 -168.22011529 119 -166 119 C-165.67 118.01 -165.34 117.02 -165 116 C-162.17376031 113.08259129 -159.01773721 110.58519889 -155.5 108.5625 C-153.14420597 107.09012873 -151.60503236 105.66996009 -149.6875 103.6875 C-146.77737482 100.69653801 -143.76987892 98.21737856 -140.3984375 95.76953125 C-137.4006895 93.55783769 -134.48369691 91.24849859 -131.5625 88.9375 C-109.9161538 71.88173771 -87.84670542 55.1893488 -64.46484375 40.5625 C-61.27776946 38.54216764 -58.17027224 36.4128315 -55.0703125 34.26171875 C-52.79343622 32.87411302 -50.49606955 31.92624183 -48 31 C-48 30.34 -48 29.68 -48 29 C-46.84757813 28.44183594 -45.69515625 27.88367188 -44.5078125 27.30859375 C-40.14116251 25.12335272 -36.01456412 22.64653419 -31.875 20.0625 C-23.62996761 14.95944099 -15.29427815 10.02278589 -6.90966797 5.15258789 C-6.00877441 4.62528076 -5.10788086 4.09797363 -4.1796875 3.5546875 C-3.37257324 3.08530762 -2.56545898 2.61592773 -1.73388672 2.13232422 C-1.1617041 1.75865723 -0.58952148 1.38499023 0 1 C0 0.67 0 0.34 0 0 Z " fill="#3E53A2" transform="translate(567,0)"/>
<path d="M0 0 C132.33 0 264.66 0 401 0 C401 0.66 401 1.32 401 2 C398.59795154 3.9318859 396.18320092 5.75868486 393.6875 7.5625 C392.20305516 8.6543873 390.71998546 9.74814653 389.23828125 10.84375 C388.50947754 11.38257813 387.78067383 11.92140625 387.02978516 12.4765625 C383.51289518 15.11613352 380.14261138 17.92454495 376.76171875 20.734375 C374.19263306 22.84197005 371.58945805 24.89264527 368.96557617 26.9309082 C361.73221528 32.55133788 354.73920382 38.40367056 347.828125 44.41455078 C345.90226777 46.08475869 343.96759071 47.74430492 342.03125 49.40234375 C340.7082262 50.53893781 339.38530695 51.67565358 338.0625 52.8125 C337.45994385 53.32731934 336.8573877 53.84213867 336.23657227 54.37255859 C332.51428908 57.58428363 329.00829295 60.94496181 325.5559082 64.44458008 C323.79739923 66.20253718 321.96384136 67.83571351 320.0625 69.4375 C317.25423653 71.85617779 314.60029407 74.35899683 312 77 C309.54087905 79.49709965 307.04906214 81.86058142 304.375 84.125 C295.24168759 91.99230871 286.77568719 100.80005328 279 110 C274.30061551 115.37332723 269.55502613 120.60852229 264.38671875 125.5390625 C260.46885555 129.34399395 257.10720954 133.33832283 253.80859375 137.6875 C251.9962753 140.00476247 250.09482465 142.19063999 248.125 144.375 C240.09253368 153.30167562 232.72964564 162.79868317 225.35107422 172.26660156 C224.08134735 173.89563315 222.80836225 175.52212366 221.53515625 177.1484375 C216.02148141 184.24383106 210.72655821 191.47320504 205.55322266 198.82128906 C202.63261344 202.92519385 199.68788833 206.56433324 196 210 C194.47785977 208.79331338 192.95736564 207.5845503 191.4375 206.375 C190.59058594 205.70210937 189.74367187 205.02921875 188.87109375 204.3359375 C186.77321338 202.62909062 184.72077728 200.90084133 182.6796875 199.12890625 C178.79737673 195.78596673 174.76321722 192.66480071 170.6875 189.5625 C169.99205078 189.02818359 169.29660156 188.49386719 168.58007812 187.94335938 C117.66045848 149.06522632 63.60192394 131.02487975 0 135 C0 90.45 0 45.9 0 0 Z " fill="#3E53A2" transform="translate(0,0)"/>
<path d="M0 0 C0.33 0 0.66 0 1 0 C1.07476562 0.77859375 1.14953125 1.5571875 1.2265625 2.359375 C2.12684798 10.02062788 3.73192849 17.17998078 5.9375 24.5625 C6.31672607 25.84688965 6.31672607 25.84688965 6.70361328 27.15722656 C8.03887897 31.49277174 9.47922116 35.1868782 12 39 C12.4125 39.99 12.825 40.98 13.25 42 C17.1917495 51.38218501 21.96350869 59.65215952 29 67 C30.25589974 68.43234846 31.50596358 69.86983592 32.75 71.3125 C34.35181034 73.15757593 35.92481167 74.92912293 37.703125 76.60546875 C39 78 39 78 39 80 C39.57854736 80.27384521 40.15709473 80.54769043 40.75317383 80.82983398 C42.97051472 81.98464382 44.91705444 83.26942675 46.94921875 84.72265625 C73.42957018 103.41450321 98.72832747 113.53227047 131.38073063 113.36914349 C133.17930751 113.37136804 134.97788314 113.37490976 136.77645519 113.37963298 C141.69107714 113.38876958 146.60551054 113.37937408 151.52011832 113.36679858 C156.87713571 113.35643821 162.23413522 113.36361931 167.59115642 113.36853105 C176.97047484 113.37473632 186.34973602 113.36984825 195.72904778 113.35761642 C209.67563678 113.33947894 223.62218986 113.33861202 237.56878851 113.34124239 C261.03145687 113.3451804 284.49409779 113.33519577 307.9567585 113.31719017 C331.18408898 113.29940785 354.41140901 113.28786191 377.63874626 113.28463173 C378.36075885 113.28452849 379.08277143 113.28442526 379.82666319 113.28431889 C386.42137616 113.28337926 393.01608913 113.2825162 399.61080212 113.28174497 C416.00270349 113.27982707 432.39460461 113.27694927 448.7865057 113.27341938 C449.53286176 113.27325943 450.27921781 113.27309948 451.04819072 113.27293468 C487.33217991 113.26507481 523.6161622 113.24615406 559.90014648 113.22631836 C572.48758947 113.21944322 585.07503247 113.21261706 597.66247559 113.20599365 C598.44317645 113.2055828 599.22387731 113.20517196 600.02823577 113.20474866 C636.33801043 113.18570762 672.64778629 113.17453681 708.95756463 113.16538927 C711.31554599 113.16479508 713.67352734 113.1641975 716.03150869 113.16359923 C731.65830124 113.1596398 747.28509383 113.15581587 762.91188644 113.15208265 C794.00389769 113.14465363 825.09590871 113.1364286 856.18791961 113.12765651 C857.66851887 113.12723879 859.14911813 113.12682163 860.62971739 113.12640502 C943.80970592 113.10299441 1026.98968693 113.06474569 1156 113 C1156.33 113.99 1156.66 114.98 1157 116 C1155.27504214 117.72495786 1153.06525407 117.12387514 1150.76527723 117.13180115 C1149.62589536 117.12803784 1149.62589536 117.12803784 1148.46349567 117.1241985 C1147.6594596 117.12547658 1146.85542353 117.12675467 1146.02702273 117.12807148 C1143.29241976 117.13117049 1140.55787293 117.12704931 1137.82327175 117.12304783 C1135.85063132 117.12378651 1133.87799101 117.12496407 1131.90535107 117.12654433 C1126.4328976 117.12963488 1120.96046248 117.12642053 1115.48801036 117.12226619 C1109.55404576 117.11885019 1103.62008315 117.1211993 1097.68611819 117.12284368 C1087.26901622 117.12492379 1076.85191924 117.12329539 1066.43481827 117.11920547 C1055.25215278 117.11483427 1044.06949002 117.11263209 1032.88682365 117.11310768 C1031.8291432 117.11315072 1031.8291432 117.11315072 1030.75009546 117.11319463 C1027.15497161 117.11335099 1023.55984775 117.11354294 1019.9647239 117.11374746 C993.91240925 117.11515665 967.86009703 117.11171827 941.80778313 117.10573006 C915.99942958 117.09981207 890.19107708 117.09595587 864.38272285 117.09487724 C863.5818725 117.09484283 862.78102215 117.09480842 861.9559036 117.09477296 C854.64160809 117.09445977 847.32731258 117.09417208 840.01301706 117.09391499 C821.82869075 117.09327551 803.64436447 117.09231613 785.46003819 117.09113979 C784.63186964 117.09108648 783.8037011 117.09103316 782.95043655 117.09097823 C742.6429827 117.0883553 702.33552953 117.08204717 662.02807617 117.07543945 C648.03660075 117.07314784 634.04512533 117.0708725 620.0536499 117.06866455 C618.75206024 117.06845913 618.75206024 117.06845913 617.42417583 117.06824955 C577.10252355 117.06190808 536.78087115 117.05818072 496.45921851 117.05512976 C493.84222173 117.05493169 491.22522495 117.0547325 488.60822816 117.05453308 C471.26557748 117.05321332 453.92292678 117.05193867 436.58027609 117.05069422 C402.07129246 117.04821757 367.56230886 117.04547588 333.05332527 117.04255217 C331.40983495 117.04241293 329.76634463 117.04227388 328.12285431 117.04213501 C254.11567532 117.03588015 180.10849683 117.02654165 106.10131836 117.01586914 C105.06162989 117.01571924 105.06162989 117.01571924 104.00093761 117.01556631 C93.7840113 117.01409252 83.567085 117.01260559 73.35015869 117.0111084 C72.16664118 117.01093499 70.98312367 117.01076159 69.76374199 117.01058293 C46.50916131 117.00716815 23.25458066 117.0035662 0 117 C0 78.39 0 39.78 0 0 Z " fill="#A5B3E0" transform="translate(0,1163)"/>
<path d="M0 0 C0.33 0 0.66 0 1 0 C1.07476562 0.77859375 1.14953125 1.5571875 1.2265625 2.359375 C2.12684798 10.02062788 3.73192849 17.17998078 5.9375 24.5625 C6.31672607 25.84688965 6.31672607 25.84688965 6.70361328 27.15722656 C8.03887897 31.49277174 9.47922116 35.1868782 12 39 C12.4125 39.99 12.825 40.98 13.25 42 C17.1917495 51.38218501 21.96350869 59.65215952 29 67 C30.25589974 68.43234846 31.50596358 69.86983592 32.75 71.3125 C34.35181034 73.15757593 35.92481167 74.92912293 37.703125 76.60546875 C39 78 39 78 39 80 C39.57854736 80.27384521 40.15709473 80.54769043 40.75317383 80.82983398 C42.97051472 81.98464382 44.91705444 83.26942675 46.94921875 84.72265625 C66.38821521 98.44417909 85.4984713 108.76169928 109.21484375 112.41015625 C113.53574195 113.08348507 117.7464459 113.99461449 122 115 C121.67 115.66 121.34 116.32 121 117 C81.07 117 41.14 117 0 117 C0 78.39 0 39.78 0 0 Z " fill="#F2F6F7" transform="translate(0,1163)"/>
<path d="M0 0 C39.93 0 79.86 0 121 0 C121 0.33 121 0.66 121 1 C119.96746094 1.06316406 118.93492188 1.12632813 117.87109375 1.19140625 C98.70787735 2.67371776 80.67169017 8.4977056 64 18 C63.02160156 18.55300781 62.04320312 19.10601563 61.03515625 19.67578125 C32.39665321 36.89175366 12.09475933 65.77842043 4 98 C2.79387252 103.63167865 1.86655216 109.30752727 1 115 C0.67 115 0.34 115 0 115 C0 77.05 0 39.1 0 0 Z " fill="#F2F6F7" transform="translate(0,0)"/>
<path d="M0 0 C4.18946421 2.15820883 7.07897966 4.96747896 10.3125 8.3125 C12.05836512 10.12910189 12.05836512 10.12910189 14.5 11.9375 C17.4781577 14.3944801 19.84837254 17.16425258 22.3515625 20.09375 C24.14182441 22.16400548 26.02578518 24.10475378 28 26 C27.67 26.66 27.34 27.32 27 28 C24.65861457 25.71643754 22.32833018 23.42186626 20 21.125 C19.33226562 20.47402344 18.66453125 19.82304687 17.9765625 19.15234375 C17.02910156 18.21455078 17.02910156 18.21455078 16.0625 17.2578125 C15.47597656 16.6817627 14.88945312 16.10571289 14.28515625 15.51220703 C13 14 13 14 13 12 C12.46375 11.773125 11.9275 11.54625 11.375 11.3125 C7.15009434 8.97768371 3.15106871 5.67624683 0 2 C0 1.34 0 0.68 0 0 Z " fill="#313F7D" transform="translate(127,271)"/>
<path d="M0 0 C2.68481386 2.68481386 3.66012605 5.83347085 5 9.3125 C5.26039062 9.97701172 5.52078125 10.64152344 5.7890625 11.32617188 C6.52935242 13.21615447 7.26479086 15.10803518 8 17 C8.66440515 18.6675695 9.33000245 20.33466955 10 22 C6.02844549 20.6761485 5.72628594 19.18396599 3.875 15.5 C1.2968251 10.16496482 0.19645637 5.89369106 0 0 Z " fill="#324180" transform="translate(7,1188)"/>
<path d="M0 0 C5.28 0.99 10.56 1.98 16 3 C16 3.66 16 4.32 16 5 C16.99 5.33 17.98 5.66 19 6 C16.20478271 5.77255191 13.41622875 5.51925036 10.625 5.25 C9.8309375 5.188125 9.036875 5.12625 8.21875 5.0625 C7.45820312 4.98515625 6.69765625 4.9078125 5.9140625 4.828125 C5.2123291 4.7652832 4.5105957 4.70244141 3.78759766 4.63769531 C2 4 2 4 0 0 Z " fill="#303E7A" transform="translate(39,225)"/>
<path d="M0 0 C5.445 1.485 5.445 1.485 11 3 C11 3.66 11 4.32 11 5 C2.42857143 4.28571429 2.42857143 4.28571429 -1 1 C-0.67 0.67 -0.34 0.34 0 0 Z " fill="#2F3D79" transform="translate(5,612)"/>
<path d="M0 0 C3.63 1.98 7.26 3.96 11 6 C10.34 6.66 9.68 7.32 9 8 C5.37 6.02 1.74 4.04 -2 2 C-1.34 1.34 -0.68 0.68 0 0 Z " fill="#2F3D79" transform="translate(62,425)"/>
</svg>
