<?xml version="1.0" standalone="no"?>
<!DOCTYPE svg PUBLIC "-//W3C//DTD SVG 20010904//EN"
 "http://www.w3.org/TR/2001/REC-SVG-20010904/DTD/svg10.dtd">
<svg version="1.0" xmlns="http://www.w3.org/2000/svg"
 width="1471.000000pt" height="526.000000pt" viewBox="0 0 1471.000000 526.000000"
 preserveAspectRatio="xMidYMid meet">

<g transform="translate(0.000000,526.000000) scale(0.100000,-0.100000)"
fill="#000000" stroke="none">
<path d="M451 5250 c-160 -24 -316 -136 -389 -280 -32 -64 -61 -176 -62 -235
l0 -30 90 3 c197 8 395 -65 601 -221 45 -34 91 -68 101 -76 17 -12 21 -12 32
5 187 264 464 554 719 754 53 41 96 78 97 81 0 9 -1126 8 -1189 -1z"/>
<path d="M2315 5239 c-71 -38 -189 -111 -295 -183 -397 -269 -734 -609 -956
-965 -37 -58 -74 -115 -83 -125 -40 -47 -144 -69 -207 -45 -16 5 -84 65 -154
132 -133 130 -231 202 -332 244 -52 22 -79 27 -158 27 -52 1 -103 -2 -112 -6
-16 -7 -18 -25 -18 -180 l0 -173 75 -12 c198 -32 442 -151 640 -313 39 -32
117 -106 174 -166 58 -59 106 -104 108 -98 9 28 97 171 155 255 101 144 210
269 384 439 419 410 1080 887 1572 1134 50 26 92 48 92 50 0 2 -190 3 -423 4
-411 2 -424 1 -462 -19z"/>
<path d="M4195 5245 c-276 -69 -775 -286 -1135 -495 -395 -229 -958 -645
-1247 -923 -284 -273 -491 -578 -574 -850 -17 -56 -42 -116 -55 -133 -47 -64
-153 -92 -227 -60 -42 18 -74 54 -125 142 -100 172 -279 375 -427 486 -95 71
-256 152 -343 172 l-62 14 0 -234 0 -233 43 -11 c273 -69 491 -193 678 -387
138 -142 229 -287 304 -485 l41 -107 63 73 c97 114 430 438 592 577 390 333
932 726 1379 1001 582 358 1380 740 2048 979 68 25 92 38 92 51 0 31 -46 145
-80 197 -60 95 -175 180 -290 217 -78 24 -584 31 -675 9z"/>
<path d="M5045 4331 c-556 -217 -1197 -531 -1695 -829 -424 -254 -988 -658
-1351 -968 -180 -153 -519 -476 -602 -572 -99 -114 -161 -211 -198 -307 -35
-90 -65 -129 -124 -156 -68 -32 -147 -18 -203 34 -37 35 -47 60 -97 261 -74
301 -130 438 -235 577 -60 81 -168 183 -250 239 -72 49 -211 117 -257 126
l-33 6 0 -1108 c0 -669 4 -1137 10 -1179 29 -207 212 -397 420 -435 37 -7 782
-9 2230 -8 l2175 3 60 23 c145 54 265 173 322 317 l28 70 3 1650 c1 908 1
1804 0 1992 l-3 342 -200 -78z"/>
<path d="M8135 3737 c-3 -12 -5 -127 -3 -255 2 -128 0 -232 -3 -232 -3 0 -20
11 -39 25 -56 42 -125 59 -230 59 -129 0 -193 -25 -275 -108 -114 -115 -157
-238 -158 -451 -1 -149 16 -234 64 -329 62 -123 149 -199 264 -232 108 -31
266 -4 350 60 36 28 45 22 45 -30 0 -24 1 -24 100 -24 l100 0 0 770 0 770
-105 0 c-101 0 -105 -1 -110 -23z m-115 -614 c30 -16 67 -45 83 -65 l29 -36
-1 -249 c-2 -245 -2 -248 -26 -285 -54 -82 -191 -121 -289 -84 -52 20 -110 80
-136 141 -27 64 -43 188 -35 278 12 138 50 229 117 281 48 36 75 45 144 45 47
1 72 -5 114 -26z"/>
<path d="M9750 2990 l0 -770 110 0 110 0 0 770 0 770 -110 0 -110 0 0 -770z"/>
<path d="M10283 3695 c-85 -37 -83 -185 2 -221 123 -51 225 54 168 173 -27 57
-101 78 -170 48z"/>
<path d="M5760 3450 l0 -130 -95 0 -95 0 0 -95 0 -95 94 0 94 0 5 -362 c4
-388 6 -406 56 -475 44 -61 108 -88 206 -88 44 0 97 4 118 8 l37 8 0 90 0 90
-59 -7 c-33 -3 -71 -4 -85 0 -53 13 -56 35 -56 401 l0 335 100 0 100 0 0 95 0
95 -100 0 -100 0 0 130 0 130 -110 0 -110 0 0 -130z"/>
<path d="M11800 3450 l0 -130 -95 0 -95 0 0 -95 0 -95 95 0 95 0 1 -332 c0
-183 3 -346 5 -363 17 -105 58 -170 131 -206 38 -19 64 -24 128 -24 44 0 97 4
118 8 l37 8 0 90 0 90 -59 -7 c-142 -16 -141 -17 -141 406 l0 330 100 0 100 0
0 95 0 95 -100 0 -100 0 0 130 0 130 -110 0 -110 0 0 -130z"/>
<path d="M6671 3329 c-163 -32 -295 -156 -358 -335 -25 -72 -27 -91 -27 -224
0 -129 3 -153 26 -222 14 -43 40 -100 57 -127 187 -291 635 -292 820 -3 16 26
42 83 57 127 26 73 28 93 28 220 1 151 -11 209 -62 314 -92 190 -317 294 -541
250z m215 -203 c107 -50 164 -156 171 -321 14 -293 -142 -468 -361 -403 -60
18 -137 99 -166 173 -44 118 -37 313 16 422 28 59 97 125 146 140 59 19 139
15 194 -11z"/>
<path d="M8940 3329 c-77 -15 -182 -73 -239 -134 -105 -111 -156 -271 -148
-460 11 -237 108 -405 283 -487 227 -106 503 -27 628 181 62 101 81 186 80
346 0 122 -4 150 -26 217 -14 43 -40 100 -57 127 -108 168 -312 251 -521 210z
m216 -203 c107 -50 164 -156 171 -321 6 -115 -13 -214 -52 -281 -118 -202
-392 -170 -476 55 -43 115 -35 310 17 418 28 59 97 125 146 140 59 19 139 15
194 -11z"/>
<path d="M11001 3329 c-72 -14 -167 -64 -215 -114 -98 -100 -113 -257 -36
-365 46 -65 179 -129 345 -165 102 -22 176 -55 203 -90 32 -40 30 -104 -4
-144 -52 -62 -206 -81 -300 -37 -60 28 -91 64 -107 123 l-11 44 -106 -3 -105
-3 3 -45 c8 -107 90 -218 202 -275 137 -70 341 -71 486 -4 70 33 145 112 168
177 24 69 19 178 -12 238 -44 87 -160 154 -341 200 -206 51 -251 79 -251 156
0 32 7 47 33 73 106 106 336 51 354 -84 l6 -41 110 0 110 0 -5 58 c-10 105
-84 209 -187 261 -87 45 -230 62 -340 40z"/>
<path d="M10230 2770 l0 -550 110 0 110 0 0 550 0 550 -110 0 -110 0 0 -550z"/>
</g>
</svg>
