<?xml version="1.0" standalone="no"?>
<!DOCTYPE svg PUBLIC "-//W3C//DTD SVG 20010904//EN"
 "http://www.w3.org/TR/2001/REC-SVG-20010904/DTD/svg10.dtd">
<svg version="1.0" xmlns="http://www.w3.org/2000/svg"
 width="526.000000pt" height="526.000000pt" viewBox="0 0 526.000000 526.000000"
 preserveAspectRatio="xMidYMid meet">

<g transform="translate(0.000000,526.000000) scale(0.100000,-0.100000)"
fill="#000000" stroke="none">
<path d="M451 5250 c-160 -24 -316 -136 -389 -280 -32 -64 -61 -176 -62 -235
l0 -30 90 3 c197 8 395 -65 601 -221 45 -34 91 -68 101 -76 17 -12 21 -12 32
5 187 264 464 554 719 754 53 41 96 78 97 81 0 9 -1126 8 -1189 -1z"/>
<path d="M2315 5239 c-71 -38 -189 -111 -295 -183 -397 -269 -734 -609 -956
-965 -37 -58 -74 -115 -83 -125 -40 -47 -144 -69 -207 -45 -16 5 -84 65 -154
132 -133 130 -231 202 -332 244 -52 22 -79 27 -158 27 -52 1 -103 -2 -112 -6
-16 -7 -18 -25 -18 -180 l0 -173 75 -12 c198 -32 442 -151 640 -313 39 -32
117 -106 174 -166 58 -59 106 -104 108 -98 9 28 97 171 155 255 101 144 210
269 384 439 419 410 1080 887 1572 1134 50 26 92 48 92 50 0 2 -190 3 -423 4
-411 2 -424 1 -462 -19z"/>
<path d="M4195 5245 c-276 -69 -775 -286 -1135 -495 -395 -229 -958 -645
-1247 -923 -284 -273 -491 -578 -574 -850 -17 -56 -42 -116 -55 -133 -47 -64
-153 -92 -227 -60 -42 18 -74 54 -125 142 -100 172 -279 375 -427 486 -95 71
-256 152 -343 172 l-62 14 0 -234 0 -233 43 -11 c273 -69 491 -193 678 -387
138 -142 229 -287 304 -485 l41 -107 63 73 c97 114 430 438 592 577 390 333
932 726 1379 1001 582 358 1380 740 2048 979 68 25 92 38 92 51 0 31 -46 145
-80 197 -60 95 -175 180 -290 217 -78 24 -584 31 -675 9z"/>
<path d="M5045 4331 c-556 -217 -1197 -531 -1695 -829 -424 -254 -988 -658
-1351 -968 -180 -153 -519 -476 -602 -572 -99 -114 -161 -211 -198 -307 -35
-90 -65 -129 -124 -156 -68 -32 -147 -18 -203 34 -37 35 -47 60 -97 261 -74
301 -130 438 -235 577 -60 81 -168 183 -250 239 -72 49 -211 117 -257 126
l-33 6 0 -1108 c0 -669 4 -1137 10 -1179 29 -207 212 -397 420 -435 37 -7 782
-9 2230 -8 l2175 3 60 23 c145 54 265 173 322 317 l28 70 3 1650 c1 908 1
1804 0 1992 l-3 342 -200 -78z"/>
</g>
</svg>
